<?xml version="1.0" encoding="utf-8"?>
<!-- created with bpmn-js / http://bpmn.io -->
<!DOCTYPE svg PUBLIC "-//W3C//DTD SVG 1.1//EN" "http://www.w3.org/Graphics/SVG/1.1/DTD/svg11.dtd">
<svg xmlns="http://www.w3.org/2000/svg" xmlns:xlink="http://www.w3.org/1999/xlink" width="1070" height="1310" viewBox="875 275 1070 1310" version="1.1"><g class="djs-group"><g class="djs-element djs-shape" data-element-id="Participant_10yfyq5" transform="matrix(1, 0, 0, 1, 880, 280)" style="display: block;"><g class="djs-visual"><rect x="0" y="0" width="1060" height="800" rx="0" ry="0" style="stroke-linecap: round; stroke-linejoin: round; stroke: rgb(255, 146, 0); stroke-width: 1.5px; fill: white; fill-opacity: 0.95;"/><path style="fill: none; stroke-linecap: round; stroke-linejoin: round; stroke: rgb(255, 146, 0); stroke-width: 1.5px;" d="M30,0L30,800"/><text style="font-family: Arial, sans-serif; font-size: 12px; font-weight: normal; fill: rgb(255, 146, 0);" lineHeight="1.2" class="djs-label" transform="matrix(-1.83697e-16, -1, 1, -1.83697e-16, 0, 800)"><tspan x="379.6666660308838" y="18.6">Staging</tspan></text></g><rect x="-5" y="-5" rx="4" width="1070" height="810" style="fill: none;" class="djs-outline"/><rect style="fill: none; stroke-opacity: 0; stroke: white; stroke-width: 15px;" class="djs-hit djs-hit-no-move" x="0" y="0" width="1060" height="800"/><rect style="fill: none; stroke-opacity: 0; stroke: white; stroke-width: 15px;" class="djs-hit djs-hit-click-stroke" x="0" y="0" width="1060" height="800"/><rect style="fill: none; stroke-opacity: 0; stroke: white; stroke-width: 15px;" class="djs-hit djs-hit-all" x="0" y="0" width="30" height="800"/></g><g class="djs-children"><g class="djs-group"><g class="djs-element djs-shape" data-element-id="Gateway_1xjgvsi" transform="matrix(1, 0, 0, 1, 1045, 445)" style="display: block;"><g class="djs-visual"><polygon style="stroke-linecap: round; stroke-linejoin: round; stroke: rgb(34, 36, 42); stroke-width: 2px; fill: white; fill-opacity: 0.95;" points="25,0 50,25 25,50 0,25"/><path style="fill: rgb(34, 36, 42); stroke-linecap: round; stroke-linejoin: round; stroke: rgb(34, 36, 42); stroke-width: 1px;" d="m 23,10 0,12.5 -12.5,0 0,5 12.5,0 0,12.5 5,0 0,-12.5 12.5,0 0,-5 -12.5,0 0,-12.5 -5,0 z"/></g><rect style="fill: none; stroke-opacity: 0; stroke: white; stroke-width: 15px;" class="djs-hit djs-hit-all" x="0" y="0" width="50" height="50"/><rect style="transform-box: fill-box; transform: rotate(45deg); transform-origin: center center 0px; fill: none;" x="2" y="2" rx="4" width="46" height="46" class="djs-outline"/></g></g><g class="djs-group"><g class="djs-element djs-shape" data-element-id="Activity_10hbg7g" transform="matrix(1, 0, 0, 1, 1160, 660)" style="display: block;"><g class="djs-visual"><rect x="0" y="0" width="100" height="80" rx="10" ry="10" style="stroke-linecap: round; stroke-linejoin: round; stroke: rgb(255, 146, 0); stroke-width: 2px; fill: white; fill-opacity: 0.95;"/><text style="font-family: Arial, sans-serif; font-size: 12px; font-weight: normal; fill: rgb(255, 146, 0); fill-opacity: 0.95;" lineHeight="1.2" class="djs-label"><tspan x="20" y="43.599999999999994">Bildgebung</tspan></text></g><rect style="fill: none; stroke-opacity: 0; stroke: white; stroke-width: 15px;" class="djs-hit djs-hit-all" x="0" y="0" width="100" height="80"/><rect x="-5" y="-5" rx="14" width="110" height="90" style="fill: none;" class="djs-outline"/></g></g><g class="djs-group"><g class="djs-element djs-shape" data-element-id="Activity_1tdn0dk" transform="matrix(1, 0, 0, 1, 1370, 430)" style="display: block;"><g class="djs-visual"><rect x="0" y="0" width="100" height="80" rx="10" ry="10" style="stroke-linecap: round; stroke-linejoin: round; stroke: rgb(255, 146, 0); stroke-width: 2px; fill: white; fill-opacity: 0.95;"/><text style="font-family: Arial, sans-serif; font-size: 12px; font-weight: normal; fill: rgb(255, 146, 0); fill-opacity: 0.95;" lineHeight="1.2" class="djs-label"><tspan x="18.325000762939453" y="22">Pathologie/ </tspan><tspan x="9" y="36.4">Molekularpatho</tspan><tspan x="37.333333015441895" y="50.8">logie</tspan><tspan x="16" y="65.19999999999999">          [LC SoS 8.1]</tspan></text></g><rect style="fill: none; stroke-opacity: 0; stroke: white; stroke-width: 15px;" class="djs-hit djs-hit-all" x="0" y="0" width="100" height="80"/><rect x="-5" y="-5" rx="14" width="110" height="90" style="fill: none;" class="djs-outline"/></g></g><g class="djs-group"><g class="djs-element djs-shape" data-element-id="Activity_0u7tiem" transform="matrix(1, 0, 0, 1, 1070, 910)" style="display: block;"><g class="djs-visual"><rect x="0" y="0" width="100" height="80" rx="10" ry="10" style="stroke-linecap: round; stroke-linejoin: round; stroke: rgb(255, 146, 0); stroke-width: 2px; fill: white; fill-opacity: 0.95;"/><text style="font-family: Arial, sans-serif; font-size: 12px; font-weight: normal; fill: rgb(255, 146, 0); fill-opacity: 0.95;" lineHeight="1.2" class="djs-label"><tspan x="15.99166488647461" y="43.599999999999994">Vorbereitung</tspan></text></g><rect style="fill: none; stroke-opacity: 0; stroke: white; stroke-width: 15px;" class="djs-hit djs-hit-all" x="0" y="0" width="100" height="80"/><rect x="-5" y="-5" rx="14" width="110" height="90" style="fill: none;" class="djs-outline"/></g></g><g class="djs-group"><g class="djs-element djs-shape" data-element-id="Activity_063n77a" transform="matrix(1, 0, 0, 1, 1180, 910)" style="display: block;"><g class="djs-visual"><rect x="0" y="0" width="100" height="80" rx="10" ry="10" style="stroke-linecap: round; stroke-linejoin: round; stroke: rgb(255, 146, 0); stroke-width: 2px; fill: white; fill-opacity: 0.95;"/><text style="font-family: Arial, sans-serif; font-size: 12px; font-weight: normal; fill: rgb(255, 146, 0); fill-opacity: 0.95;" lineHeight="1.2" class="djs-label"><tspan x="21.35833239555359" y="43.599999999999994">Anamnese</tspan></text></g><rect style="fill: none; stroke-opacity: 0; stroke: white; stroke-width: 15px;" class="djs-hit djs-hit-all" x="0" y="0" width="100" height="80"/><rect x="-5" y="-5" rx="14" width="110" height="90" style="fill: none;" class="djs-outline"/></g></g><g class="djs-group"><g class="djs-element djs-shape" data-element-id="Activity_0dmkmqr" transform="matrix(1, 0, 0, 1, 1300, 910)" style="display: block;"><g class="djs-visual"><rect x="0" y="0" width="100" height="80" rx="10" ry="10" style="stroke-linecap: round; stroke-linejoin: round; stroke: rgb(255, 146, 0); stroke-width: 2px; fill: white; fill-opacity: 0.95;"/><text style="font-family: Arial, sans-serif; font-size: 12px; font-weight: normal; fill: rgb(255, 146, 0); fill-opacity: 0.95;" lineHeight="1.2" class="djs-label"><tspan x="15" y="43.599999999999994">Überweisung</tspan></text></g><rect style="fill: none; stroke-opacity: 0; stroke: white; stroke-width: 15px;" class="djs-hit djs-hit-all" x="0" y="0" width="100" height="80"/><rect x="-5" y="-5" rx="14" width="110" height="90" style="fill: none;" class="djs-outline"/></g></g><g class="djs-group"><g class="djs-element djs-shape" data-element-id="Activity_013emyo" transform="matrix(1, 0, 0, 1, 1140, 300)" style="display: block;"><g class="djs-visual"><rect x="0" y="0" width="140" height="330" rx="10" ry="10" style="stroke-linecap: round; stroke-linejoin: round; stroke: rgb(34, 36, 42); stroke-width: 2px; fill: white; fill-opacity: 0.95;"/><text style="font-family: Arial, sans-serif; font-size: 12px; font-weight: normal; fill: rgb(34, 36, 42); fill-opacity: 0.95;" lineHeight="1.2" class="djs-label"><tspan x="18.666667938232422" y="17.799999999999997">Diagnosesicherung</tspan></text></g><rect style="fill: none; stroke-opacity: 0; stroke: white; stroke-width: 15px;" class="djs-hit djs-hit-no-move" x="0" y="0" width="140" height="330"/><rect style="fill: none; stroke-opacity: 0; stroke: white; stroke-width: 15px;" class="djs-hit djs-hit-click-stroke" x="0" y="0" width="140" height="330"/><rect style="fill: none; stroke-opacity: 0; stroke: white; stroke-width: 15px;" class="djs-hit djs-hit-all" x="0" y="0" width="140" height="30"/><rect x="-5" y="-5" rx="14" width="150" height="340" style="fill: none;" class="djs-outline"/></g><g class="djs-children"><g class="djs-group"><g class="djs-element djs-shape" data-element-id="Activity_11j60zy" transform="matrix(1, 0, 0, 1, 1160, 440)" style="display: block;"><g class="djs-visual"><rect x="0" y="0" width="100" height="80" rx="10" ry="10" style="stroke-linecap: round; stroke-linejoin: round; stroke: rgb(255, 146, 0); stroke-width: 2px; fill: white; fill-opacity: 0.95;"/><text style="font-family: Arial, sans-serif; font-size: 12px; font-weight: normal; fill: rgb(255, 146, 0); fill-opacity: 0.95;" lineHeight="1.2" class="djs-label"><tspan x="11.666667938232422" y="14.799999999999999">Mediastinales </tspan><tspan x="14" y="29.199999999999996">Staging (z.B. </tspan><tspan x="18" y="43.599999999999994">EBUS/EUS,</tspan><tspan x="8.333332061767578" y="57.99999999999999">Mediastinoskop</tspan><tspan x="43.333333015441895" y="72.39999999999999">ie)</tspan></text></g><rect style="fill: none; stroke-opacity: 0; stroke: white; stroke-width: 15px;" class="djs-hit djs-hit-all" x="0" y="0" width="100" height="80"/><rect x="-5" y="-5" rx="14" width="110" height="90" style="fill: none;" class="djs-outline"/></g></g><g class="djs-group"><g class="djs-element djs-shape" data-element-id="Activity_13fvkvl" transform="matrix(1, 0, 0, 1, 1160, 530)" style="display: block;"><g class="djs-visual"><rect x="0" y="0" width="100" height="80" rx="10" ry="10" style="stroke-linecap: round; stroke-linejoin: round; stroke: rgb(255, 146, 0); stroke-width: 2px; fill: white; fill-opacity: 0.95;"/><text style="font-family: Arial, sans-serif; font-size: 12px; font-weight: normal; fill: rgb(255, 146, 0); fill-opacity: 0.95;" lineHeight="1.2" class="djs-label"><tspan x="10" y="22">Bildgesteuerte </tspan><tspan x="28.66666603088379" y="36.4">Biopsie </tspan><tspan x="13" y="50.8">(Primärläsion,</tspan><tspan x="17" y="65.19999999999999">Metastasen)</tspan></text></g><rect style="fill: none; stroke-opacity: 0; stroke: white; stroke-width: 15px;" class="djs-hit djs-hit-all" x="0" y="0" width="100" height="80"/><rect x="-5" y="-5" rx="14" width="110" height="90" style="fill: none;" class="djs-outline"/></g></g><g class="djs-group"><g class="djs-element djs-shape" data-element-id="Activity_137xg0a" transform="matrix(1, 0, 0, 1, 1160, 350)" style="display: block;"><g class="djs-visual"><rect x="0" y="0" width="100" height="80" rx="10" ry="10" style="stroke-linecap: round; stroke-linejoin: round; stroke: rgb(34, 36, 42); stroke-width: 2px; fill: white; fill-opacity: 0.95;"/><text style="font-family: Arial, sans-serif; font-size: 12px; font-weight: normal; fill: rgb(34, 36, 42); fill-opacity: 0.95;" lineHeight="1.2" class="djs-label"><tspan x="10.333332061767578" y="43.599999999999994">Bronchoskopie</tspan></text></g><rect style="fill: none; stroke-opacity: 0; stroke: white; stroke-width: 15px;" class="djs-hit djs-hit-all" x="0" y="0" width="100" height="80"/><rect x="-5" y="-5" rx="14" width="110" height="90" style="fill: none;" class="djs-outline"/></g></g></g></g><g class="djs-group"><g class="djs-element djs-shape" data-element-id="Event_1a8ka9t" transform="matrix(1, 0, 0, 1, 932, 452)" style="display: block;"><g class="djs-visual"><circle cx="18" cy="18" r="18" style="stroke-linecap: round; stroke-linejoin: round; stroke: rgb(34, 36, 42); stroke-width: 2px; fill: white; fill-opacity: 0.95;"/></g><rect style="fill: none; stroke-opacity: 0; stroke: white; stroke-width: 15px;" class="djs-hit djs-hit-all" x="0" y="0" width="36" height="36"/><circle cx="18" cy="18" r="23" style="fill: none;" class="djs-outline"/></g></g><g class="djs-group"><g class="djs-element djs-shape" data-element-id="Event_1a8ka9t_label" transform="matrix(1, 0, 0, 1, 923, 495)" style="display: block;"><g class="djs-visual"><text style="font-family: Arial, sans-serif; font-size: 11px; font-weight: normal; fill: rgb(34, 36, 42); fill-opacity: 0.95;" lineHeight="1.2" class="djs-label"><tspan x="0" y="9.899999999999999">Beginn der </tspan><tspan x="7.716667175292969" y="23.099999999999998">Staging-</tspan><tspan x="2.5166683197021484" y="36.3">Diagnostik</tspan></text></g><rect style="fill: none; stroke-opacity: 0; stroke: white; stroke-width: 15px;" class="djs-hit djs-hit-all" x="0" y="0" width="57" height="40"/><rect x="-5" y="-5" rx="4" width="67" height="50" style="fill: none;" class="djs-outline"/></g></g><g class="djs-group"><g class="djs-element djs-shape" data-element-id="QualityIndicator_0j6w6bc" transform="matrix(1, 0, 0, 1, 1467, 532)" style="display: block;"><g class="djs-visual"><circle cx="18" cy="18" r="18" style="stroke-linecap: round; stroke-linejoin: round; stroke: rgb(34, 36, 42); stroke-width: 2px; fill: rgb(222, 206, 226); fill-opacity: 0.95; stroke-opacity: 0.95;"/><path style="fill: rgb(34, 36, 42); stroke-linecap: round; stroke-linejoin: round; stroke: none; stroke-width: 2px; fill-opacity: 0.95; stroke-opacity: 0.95;" d="m 0,0 m 19.699,12.899 c -1.079,-1.183 -2.637,-1.774 -4.672,-1.774 c -2.038,0 -3.602,0.588 -4.695,1.76 c -1.09,1.172 -1.633,2.87 -1.633,5.094 c 0,2.224 0.543,3.929 1.633,5.119 c 1.086,1.186 2.647,1.777 4.678,1.777 c 0,0 0.21,0 0.21,0 c 0,0 2.427,3.094 2.427,3.094 c 0,0 3.599,0 3.599,0 c 0,0 -3.19,-3.689 -3.19,-3.689 c 1.069,-0.495 1.88,-1.272 2.434,-2.334 c 0.553,-1.062 0.831,-2.378 0.831,-3.953 c 0,-2.214 -0.539,-3.915 -1.622,-5.094 zm -7.209,1.705 c 0.571,-0.76 1.417,-1.142 2.537,-1.142 c 2.231,0 3.345,1.513 3.345,4.531 c 0,3.018 -1.121,4.524 -3.369,4.524 c -1.117,0 -1.956,-0.378 -2.516,-1.138 c -0.564,-0.76 -0.846,-1.887 -0.846,-3.386 c 0,-1.499 0.282,-2.626 0.849,-3.389 zm 14.4,9.927 c 0,0 0,-13.406 0,-13.406 c 0,0 -2.808,0 -2.808,0 c 0,0 0,13.406 0,13.406 c 0,0 2.808,0 2.808,0 z"/></g><rect style="fill: none; stroke-opacity: 0; stroke: white; stroke-width: 15px;" class="djs-hit djs-hit-all" x="0" y="0" width="36" height="36"/><circle cx="18" cy="18" r="23" style="fill: none;" class="djs-outline"/></g></g><g class="djs-group"><g class="djs-element djs-shape" data-element-id="QualityIndicator_0j6w6bc_label" transform="matrix(1, 0, 0, 1, 1444, 575)" style="display: block;"><g class="djs-visual"><text style="font-family: Arial, sans-serif; font-size: 11px; font-weight: normal; fill: rgb(34, 36, 42); fill-opacity: 0.95;" lineHeight="1.2" class="djs-label"><tspan x="0" y="9.899999999999999">#5 pathologische</tspan><tspan x="12.233331680297852" y="23.099999999999998">Diagnose – </tspan><tspan x="9.691665649414062" y="36.3">Tumorsubtyp</tspan></text></g><rect style="fill: none; stroke-opacity: 0; stroke: white; stroke-width: 15px;" class="djs-hit djs-hit-all" x="0" y="0" width="84" height="40"/><rect x="-5" y="-5" rx="4" width="94" height="50" style="fill: none;" class="djs-outline"/></g></g><g class="djs-group"><g class="djs-element djs-shape" data-element-id="QualityIndicator_0nvwtz8" transform="matrix(1, 0, 0, 1, 1332, 532)" style="display: block;"><g class="djs-visual"><circle cx="18" cy="18" r="18" style="stroke-linecap: round; stroke-linejoin: round; stroke: rgb(34, 36, 42); stroke-width: 2px; fill: rgb(222, 206, 226); fill-opacity: 0.95; stroke-opacity: 0.95;"/><path style="fill: rgb(34, 36, 42); stroke-linecap: round; stroke-linejoin: round; stroke: none; stroke-width: 2px; fill-opacity: 0.95; stroke-opacity: 0.95;" d="m 0,0 m 19.699,12.899 c -1.079,-1.183 -2.637,-1.774 -4.672,-1.774 c -2.038,0 -3.602,0.588 -4.695,1.76 c -1.09,1.172 -1.633,2.87 -1.633,5.094 c 0,2.224 0.543,3.929 1.633,5.119 c 1.086,1.186 2.647,1.777 4.678,1.777 c 0,0 0.21,0 0.21,0 c 0,0 2.427,3.094 2.427,3.094 c 0,0 3.599,0 3.599,0 c 0,0 -3.19,-3.689 -3.19,-3.689 c 1.069,-0.495 1.88,-1.272 2.434,-2.334 c 0.553,-1.062 0.831,-2.378 0.831,-3.953 c 0,-2.214 -0.539,-3.915 -1.622,-5.094 zm -7.209,1.705 c 0.571,-0.76 1.417,-1.142 2.537,-1.142 c 2.231,0 3.345,1.513 3.345,4.531 c 0,3.018 -1.121,4.524 -3.369,4.524 c -1.117,0 -1.956,-0.378 -2.516,-1.138 c -0.564,-0.76 -0.846,-1.887 -0.846,-3.386 c 0,-1.499 0.282,-2.626 0.849,-3.389 zm 14.4,9.927 c 0,0 0,-13.406 0,-13.406 c 0,0 -2.808,0 -2.808,0 c 0,0 0,13.406 0,13.406 c 0,0 2.808,0 2.808,0 z"/></g><rect style="fill: none; stroke-opacity: 0; stroke: white; stroke-width: 15px;" class="djs-hit djs-hit-all" x="0" y="0" width="36" height="36"/><circle cx="18" cy="18" r="23" style="fill: none;" class="djs-outline"/></g></g><g class="djs-group"><g class="djs-element djs-shape" data-element-id="QualityIndicator_0nvwtz8_label" transform="matrix(1, 0, 0, 1, 1310, 575)" style="display: block;"><g class="djs-visual"><text style="font-family: Arial, sans-serif; font-size: 11px; font-weight: normal; fill: rgb(34, 36, 42); fill-opacity: 0.95;" lineHeight="1.2" class="djs-label"><tspan x="0" y="9.899999999999999">#4 pathologische</tspan><tspan x="18.341665267944336" y="23.099999999999998">Diagnose</tspan></text></g><rect style="fill: none; stroke-opacity: 0; stroke: white; stroke-width: 15px;" class="djs-hit djs-hit-all" x="0" y="0" width="84" height="27"/><rect x="-5" y="-5" rx="4" width="94" height="37" style="fill: none;" class="djs-outline"/></g></g><g class="djs-group"><g class="djs-element djs-shape" data-element-id="Gateway_00g65l5" transform="matrix(1, 0, 0, 1, 1590, 445)" style="display: block;"><g class="djs-visual"><polygon style="stroke-linecap: round; stroke-linejoin: round; stroke: rgb(34, 36, 42); stroke-width: 2px; fill: white; fill-opacity: 0.95;" points="25,0 50,25 25,50 0,25"/><path style="fill: rgb(34, 36, 42); stroke-linecap: round; stroke-linejoin: round; stroke: rgb(34, 36, 42); stroke-width: 1px;" d="m 23,10 0,12.5 -12.5,0 0,5 12.5,0 0,12.5 5,0 0,-12.5 12.5,0 0,-5 -12.5,0 0,-12.5 -5,0 z"/></g><rect style="fill: none; stroke-opacity: 0; stroke: white; stroke-width: 15px;" class="djs-hit djs-hit-all" x="0" y="0" width="50" height="50"/><rect style="transform-box: fill-box; transform: rotate(45deg); transform-origin: center center 0px; fill: none;" x="2" y="2" rx="4" width="46" height="46" class="djs-outline"/></g></g><g class="djs-group"><g class="djs-element djs-shape" data-element-id="Activity_0g38zlb" transform="matrix(1, 0, 0, 1, 1680, 430)" style="display: block;"><g class="djs-visual"><rect x="0" y="0" width="100" height="80" rx="10" ry="10" style="stroke-linecap: round; stroke-linejoin: round; stroke: rgb(34, 36, 42); stroke-width: 2px; fill: white; fill-opacity: 0.95;"/><text style="font-family: Arial, sans-serif; font-size: 12px; font-weight: normal; fill: rgb(34, 36, 42); fill-opacity: 0.95;" lineHeight="1.2" class="djs-label"><tspan x="14.333332061767578" y="22">Clinical TNM </tspan><tspan x="28" y="36.4">(cTNM)-</tspan><tspan x="13.333332061767578" y="50.8">Klassifikation </tspan><tspan x="18" y="65.19999999999999">und Staging</tspan></text></g><rect style="fill: none; stroke-opacity: 0; stroke: white; stroke-width: 15px;" class="djs-hit djs-hit-all" x="0" y="0" width="100" height="80"/><rect x="-5" y="-5" rx="14" width="110" height="90" style="fill: none;" class="djs-outline"/></g></g><g class="djs-group"><g class="djs-element djs-shape" data-element-id="Event_0sik5ks" transform="matrix(1, 0, 0, 1, 1832, 452)" style="display: block;"><g class="djs-visual"><circle cx="18" cy="18" r="18" style="stroke-linecap: round; stroke-linejoin: round; stroke: rgb(34, 36, 42); stroke-width: 4px; fill: white; fill-opacity: 0.95;"/></g><rect style="fill: none; stroke-opacity: 0; stroke: white; stroke-width: 15px;" class="djs-hit djs-hit-all" x="0" y="0" width="36" height="36"/><circle cx="18" cy="18" r="24" style="fill: none;" class="djs-outline"/></g></g><g class="djs-group"><g class="djs-element djs-shape" data-element-id="Event_0sik5ks_label" transform="matrix(1, 0, 0, 1, 1807, 416)" style="display: block;"><g class="djs-visual"><text style="font-family: Arial, sans-serif; font-size: 11px; font-weight: normal; fill: rgb(34, 36, 42); fill-opacity: 0.95;" lineHeight="1.2" class="djs-label"><tspan x="0" y="9.899999999999999">Ende der Staging-</tspan><tspan x="18.64166831970215" y="23.099999999999998">Diagnostik</tspan></text></g><rect style="fill: none; stroke-opacity: 0; stroke: white; stroke-width: 15px;" class="djs-hit djs-hit-all" x="0" y="0" width="89" height="27"/><rect x="-5" y="-5" rx="4" width="99" height="37" style="fill: none;" class="djs-outline"/></g></g><g class="djs-group"><g class="djs-element djs-shape" data-element-id="DataObjectReference_0nnzpd8" transform="matrix(1, 0, 0, 1, 1392, 610)" style="display: block;"><g class="djs-visual"><path style="fill: white; stroke-linecap: round; stroke-linejoin: round; stroke: rgb(34, 36, 42); stroke-width: 2px; fill-opacity: 0.95;" d="m 0,0 28.23529411764706,0 7.058823529411765,8.196721311475411 0,40.98360655737705 -35.294117647058826,0 0,-49.18032786885246 28.23529411764706,0 0,8.196721311475411 7.058823529411765,0"/><path style="fill: white; stroke-linecap: round; stroke-linejoin: round; stroke: rgb(34, 36, 42); stroke-width: 2px;" d="m11.88,32 m 3,2 l 0,10 m 3,-10 l 0,10 m 3,-10 l 0,10"/></g><rect style="fill: none; stroke-opacity: 0; stroke: white; stroke-width: 15px;" class="djs-hit djs-hit-all" x="0" y="0" width="36" height="50"/><path d="M44.7648 11.3263L36.9892 2.64074C36.0451 1.58628 34.5651 0.988708 33.1904 0.988708H5.98667C3.22688 0.988708 0.989624 3.34892 0.989624 6.26039V55.0235C0.989624 57.9349 3.22688 60.2952 5.98667 60.2952H40.966C43.7257 60.2952 45.963 57.9349 45.963 55.0235V14.9459C45.963 13.5998 45.6407 12.3048 44.7648 11.3263Z" style="stroke-width: 2px; fill: none;" transform="translate(-6, -6)" class="djs-outline"/></g></g><g class="djs-group"><g class="djs-element djs-shape" data-element-id="DataObjectReference_0nnzpd8_label" transform="matrix(1, 0, 0, 1, 1368, 670)" style="display: block;"><g class="djs-visual"><text style="font-family: Arial, sans-serif; font-size: 11px; font-weight: normal; fill: rgb(34, 36, 42); fill-opacity: 0.95;" lineHeight="1.2" class="djs-label"><tspan x="0" y="9.899999999999999">Pathologiebefund</tspan></text></g><rect style="fill: none; stroke-opacity: 0; stroke: white; stroke-width: 15px;" class="djs-hit djs-hit-all" x="0" y="0" width="86" height="14"/><rect x="-5" y="-5" rx="4" width="96" height="24" style="fill: none;" class="djs-outline"/></g></g><g class="djs-group"><g class="djs-element djs-shape" data-element-id="QualityIndicator_0ohfvaw" transform="matrix(1, 0, 0, 1, 1832, 532)" style="display: block;"><g class="djs-visual"><circle cx="18" cy="18" r="18" style="stroke-linecap: round; stroke-linejoin: round; stroke: rgb(34, 36, 42); stroke-width: 2px; fill: rgb(222, 206, 226); fill-opacity: 0.95; stroke-opacity: 0.95;"/><path style="fill: rgb(34, 36, 42); stroke-linecap: round; stroke-linejoin: round; stroke: none; stroke-width: 2px; fill-opacity: 0.95; stroke-opacity: 0.95;" d="m 0,0 m 19.699,12.899 c -1.079,-1.183 -2.637,-1.774 -4.672,-1.774 c -2.038,0 -3.602,0.588 -4.695,1.76 c -1.09,1.172 -1.633,2.87 -1.633,5.094 c 0,2.224 0.543,3.929 1.633,5.119 c 1.086,1.186 2.647,1.777 4.678,1.777 c 0,0 0.21,0 0.21,0 c 0,0 2.427,3.094 2.427,3.094 c 0,0 3.599,0 3.599,0 c 0,0 -3.19,-3.689 -3.19,-3.689 c 1.069,-0.495 1.88,-1.272 2.434,-2.334 c 0.553,-1.062 0.831,-2.378 0.831,-3.953 c 0,-2.214 -0.539,-3.915 -1.622,-5.094 zm -7.209,1.705 c 0.571,-0.76 1.417,-1.142 2.537,-1.142 c 2.231,0 3.345,1.513 3.345,4.531 c 0,3.018 -1.121,4.524 -3.369,4.524 c -1.117,0 -1.956,-0.378 -2.516,-1.138 c -0.564,-0.76 -0.846,-1.887 -0.846,-3.386 c 0,-1.499 0.282,-2.626 0.849,-3.389 zm 14.4,9.927 c 0,0 0,-13.406 0,-13.406 c 0,0 -2.808,0 -2.808,0 c 0,0 0,13.406 0,13.406 c 0,0 2.808,0 2.808,0 z"/></g><rect style="fill: none; stroke-opacity: 0; stroke: white; stroke-width: 15px;" class="djs-hit djs-hit-all" x="0" y="0" width="36" height="36"/><circle cx="18" cy="18" r="23" style="fill: none;" class="djs-outline"/></g></g><g class="djs-group"><g class="djs-element djs-shape" data-element-id="QualityIndicator_0ohfvaw_label" transform="matrix(1, 0, 0, 1, 1811, 575)" style="display: block;"><g class="djs-visual"><text style="font-family: Arial, sans-serif; font-size: 11px; font-weight: normal; fill: rgb(34, 36, 42); fill-opacity: 0.95;" lineHeight="1.2" class="djs-label"><tspan x="0.8583335876464844" y="9.899999999999999">#6 Diagnose vor </tspan><tspan x="0" y="23.099999999999998">Behandlungsbegi</tspan><tspan x="36.39166831970215" y="36.3">nn</tspan></text></g><rect style="fill: none; stroke-opacity: 0; stroke: white; stroke-width: 15px;" class="djs-hit djs-hit-all" x="0" y="0" width="86" height="40"/><rect x="-5" y="-5" rx="4" width="96" height="50" style="fill: none;" class="djs-outline"/></g></g><g class="djs-group"><g class="djs-element djs-connection" data-element-id="Flow_0058fwa" style="display: block;"><g class="djs-visual"><defs><marker id="marker-55ifjwhlg9fw5ctq03m0pu2ds" viewBox="0 0 20 20" refX="11" refY="10" markerWidth="10" markerHeight="10" orient="auto"><path d="M 1 5 L 11 10 L 1 15 Z" style="stroke-linecap: round; stroke-linejoin: round; stroke: rgb(34, 36, 42); stroke-width: 1px; fill: rgb(34, 36, 42);"/></marker></defs><path style="fill: none; stroke-linecap: round; stroke-linejoin: round; stroke: rgb(34, 36, 42); stroke-width: 2px; marker-end: url('#marker-55ifjwhlg9fw5ctq03m0pu2ds');" data-corner-radius="5" d="M968,470L1045,470"/></g><path d="M968,470L1045,470" style="fill: none; stroke-opacity: 0; stroke: white; stroke-width: 15px;" class="djs-hit djs-hit-stroke"/><rect x="963" y="465" rx="4" width="87" height="10" style="fill: none;" class="djs-outline"/></g></g><g class="djs-group"><g class="djs-element djs-connection" data-element-id="Flow_0mj6tw5" style="display: block;"><g class="djs-visual"><defs><marker id="marker-egvvhqtml3047gj3wzm3jnfax" viewBox="0 0 20 20" refX="11" refY="10" markerWidth="10" markerHeight="10" orient="auto"><path d="M 1 5 L 11 10 L 1 15 Z" style="stroke-linecap: round; stroke-linejoin: round; stroke: rgb(34, 36, 42); stroke-width: 1px; fill: rgb(34, 36, 42);"/></marker></defs><path style="fill: none; stroke-linecap: round; stroke-linejoin: round; stroke: rgb(34, 36, 42); stroke-width: 2px; marker-end: url('#marker-egvvhqtml3047gj3wzm3jnfax');" data-corner-radius="5" d="M1070,495L1070,695C1070,697.5,1072.5,700,1075,700L1160,700"/></g><path d="M1070,495L1070,700L1160,700" style="fill: none; stroke-opacity: 0; stroke: white; stroke-width: 15px;" class="djs-hit djs-hit-stroke"/><rect x="1065" y="490" rx="4" width="100" height="215" style="fill: none;" class="djs-outline"/></g></g><g class="djs-group"><g class="djs-element djs-connection" data-element-id="Flow_1jka1pa" style="display: block;"><g class="djs-visual"><defs><marker id="marker-8srcy5nb0umudrdmtx294h2h8" viewBox="0 0 20 20" refX="11" refY="10" markerWidth="10" markerHeight="10" orient="auto"><path d="M 1 5 L 11 10 L 1 15 Z" style="stroke-linecap: round; stroke-linejoin: round; stroke: rgb(34, 36, 42); stroke-width: 1px; fill: rgb(34, 36, 42);"/></marker></defs><path style="fill: none; stroke-linecap: round; stroke-linejoin: round; stroke: rgb(34, 36, 42); stroke-width: 2px; marker-end: url('#marker-8srcy5nb0umudrdmtx294h2h8');" data-corner-radius="5" d="M1095,470L1140,470"/></g><path d="M1095,470L1140,470" style="fill: none; stroke-opacity: 0; stroke: white; stroke-width: 15px;" class="djs-hit djs-hit-stroke"/><rect x="1090" y="465" rx="4" width="55" height="10" style="fill: none;" class="djs-outline"/></g></g><g class="djs-group"><g class="djs-element djs-connection" data-element-id="Flow_1rff0er" style="display: block;"><g class="djs-visual"><defs><marker id="marker-5dyfp7xzjd6fqd4z7p3eacbv7" viewBox="0 0 20 20" refX="11" refY="10" markerWidth="10" markerHeight="10" orient="auto"><path d="M 1 5 L 11 10 L 1 15 Z" style="stroke-linecap: round; stroke-linejoin: round; stroke: rgb(34, 36, 42); stroke-width: 1px; fill: rgb(34, 36, 42);"/></marker></defs><path style="fill: none; stroke-linecap: round; stroke-linejoin: round; stroke: rgb(34, 36, 42); stroke-width: 2px; marker-end: url('#marker-5dyfp7xzjd6fqd4z7p3eacbv7');" data-corner-radius="5" d="M1260,700L1610,700C1612.5,700,1615,697.5,1615,695L1615,495"/></g><path d="M1260,700L1615,700L1615,495" style="fill: none; stroke-opacity: 0; stroke: white; stroke-width: 15px;" class="djs-hit djs-hit-stroke"/><rect x="1255" y="490" rx="4" width="365" height="215" style="fill: none;" class="djs-outline"/></g></g><g class="djs-group"><g class="djs-element djs-connection" data-element-id="Flow_1hk0w7g" style="display: block;"><g class="djs-visual"><defs><marker id="marker-7wioamo0z1y01aosnj5ynjahd" viewBox="0 0 20 20" refX="11" refY="10" markerWidth="10" markerHeight="10" orient="auto"><path d="M 1 5 L 11 10 L 1 15 Z" style="stroke-linecap: round; stroke-linejoin: round; stroke: rgb(34, 36, 42); stroke-width: 1px; fill: rgb(34, 36, 42);"/></marker></defs><path style="fill: none; stroke-linecap: round; stroke-linejoin: round; stroke: rgb(34, 36, 42); stroke-width: 2px; marker-end: url('#marker-7wioamo0z1y01aosnj5ynjahd');" data-corner-radius="5" d="M1280,470L1370,470"/></g><path d="M1280,470L1370,470" style="fill: none; stroke-opacity: 0; stroke: white; stroke-width: 15px;" class="djs-hit djs-hit-stroke"/><rect x="1275" y="465" rx="4" width="100" height="10" style="fill: none;" class="djs-outline"/></g></g><g class="djs-group"><g class="djs-element djs-connection" data-element-id="Flow_01n2wpf" style="display: block;"><g class="djs-visual"><defs><marker id="marker-7oqu3ab77fyci7xsle45y57nn" viewBox="0 0 20 20" refX="11" refY="10" markerWidth="10" markerHeight="10" orient="auto"><path d="M 1 5 L 11 10 L 1 15 Z" style="stroke-linecap: round; stroke-linejoin: round; stroke: rgb(34, 36, 42); stroke-width: 1px; fill: rgb(34, 36, 42);"/></marker></defs><path style="fill: none; stroke-linecap: round; stroke-linejoin: round; stroke: rgb(34, 36, 42); stroke-width: 2px; marker-end: url('#marker-7oqu3ab77fyci7xsle45y57nn');" data-corner-radius="5" d="M1470,470L1590,470"/></g><path d="M1470,470L1590,470" style="fill: none; stroke-opacity: 0; stroke: white; stroke-width: 15px;" class="djs-hit djs-hit-stroke"/><rect x="1465" y="465" rx="4" width="130" height="10" style="fill: none;" class="djs-outline"/></g></g><g class="djs-group"><g class="djs-element djs-connection" data-element-id="Flow_0ijz914" style="display: block;"><g class="djs-visual"><defs><marker id="marker-91gez3abgkjyrdpvgen871x6p" viewBox="0 0 20 20" refX="11" refY="10" markerWidth="10" markerHeight="10" orient="auto"><path d="M 1 5 L 11 10 L 1 15 Z" style="stroke-linecap: round; stroke-linejoin: round; stroke: rgb(34, 36, 42); stroke-width: 1px; fill: rgb(34, 36, 42);"/></marker></defs><path style="fill: none; stroke-linecap: round; stroke-linejoin: round; stroke: rgb(34, 36, 42); stroke-width: 2px; marker-end: url('#marker-91gez3abgkjyrdpvgen871x6p');" data-corner-radius="5" d="M1640,470L1680,470"/></g><path d="M1640,470L1680,470" style="fill: none; stroke-opacity: 0; stroke: white; stroke-width: 15px;" class="djs-hit djs-hit-stroke"/><rect x="1635" y="465" rx="4" width="50" height="10" style="fill: none;" class="djs-outline"/></g></g><g class="djs-group"><g class="djs-element djs-connection" data-element-id="Flow_0vxd55a" style="display: block;"><g class="djs-visual"><defs><marker id="marker-48mwz76v6j6233ugx13996mxb" viewBox="0 0 20 20" refX="11" refY="10" markerWidth="10" markerHeight="10" orient="auto"><path d="M 1 5 L 11 10 L 1 15 Z" style="stroke-linecap: round; stroke-linejoin: round; stroke: rgb(34, 36, 42); stroke-width: 1px; fill: rgb(34, 36, 42);"/></marker></defs><path style="fill: none; stroke-linecap: round; stroke-linejoin: round; stroke: rgb(34, 36, 42); stroke-width: 2px; marker-end: url('#marker-48mwz76v6j6233ugx13996mxb');" data-corner-radius="5" d="M1780,470L1832,470"/></g><path d="M1780,470L1832,470" style="fill: none; stroke-opacity: 0; stroke: white; stroke-width: 15px;" class="djs-hit djs-hit-stroke"/><rect x="1775" y="465" rx="4" width="62" height="10" style="fill: none;" class="djs-outline"/></g></g><g class="djs-group"><g class="djs-element djs-connection" data-element-id="Association_0xhqezc" style="display: block;"><g class="djs-visual"><path style="fill: none; stroke-linecap: round; stroke-linejoin: round; stroke: rgb(34, 36, 42); stroke-width: 2px; stroke-dasharray: 0px, 5px;" data-corner-radius="5" d="M1460,510L1474,532"/></g><path d="M1460,510L1474,532" style="fill: none; stroke-opacity: 0; stroke: white; stroke-width: 15px;" class="djs-hit djs-hit-stroke"/><rect x="1455" y="505" rx="4" width="24" height="32" style="fill: none;" class="djs-outline"/></g></g><g class="djs-group"><g class="djs-element djs-connection" data-element-id="Association_0jtilau" style="display: block;"><g class="djs-visual"><path style="fill: none; stroke-linecap: round; stroke-linejoin: round; stroke: rgb(34, 36, 42); stroke-width: 2px; stroke-dasharray: 0px, 5px;" data-corner-radius="5" d="M1380,510L1364,532"/></g><path d="M1380,510L1364,532" style="fill: none; stroke-opacity: 0; stroke: white; stroke-width: 15px;" class="djs-hit djs-hit-stroke"/><rect x="1359" y="505" rx="4" width="26" height="32" style="fill: none;" class="djs-outline"/></g></g><g class="djs-group"><g class="djs-element djs-connection" data-element-id="Association_0e7q11c" style="display: block;"><g class="djs-visual"><path style="fill: none; stroke-linecap: round; stroke-linejoin: round; stroke: rgb(34, 36, 42); stroke-width: 2px; stroke-dasharray: 0px, 5px;" data-corner-radius="5" d="M1850,488L1850,532"/></g><path d="M1850,488L1850,532" style="fill: none; stroke-opacity: 0; stroke: white; stroke-width: 15px;" class="djs-hit djs-hit-stroke"/><rect x="1845" y="483" rx="4" width="10" height="54" style="fill: none;" class="djs-outline"/></g></g></g></g><g class="djs-group"><g class="djs-element djs-shape" data-element-id="Participant_1ldw844" transform="matrix(1, 0, 0, 1, 880, 1080)" style="display: block;"><g class="djs-visual"><rect x="0" y="0" width="600" height="250" rx="0" ry="0" style="stroke-linecap: round; stroke-linejoin: round; stroke: rgb(255, 146, 0); stroke-width: 1.5px; fill: white; fill-opacity: 0.95;"/><path style="fill: none; stroke-linecap: round; stroke-linejoin: round; stroke: rgb(255, 146, 0); stroke-width: 1.5px;" d="M30,0L30,250"/><text style="font-family: Arial, sans-serif; font-size: 12px; font-weight: normal; fill: rgb(255, 146, 0);" lineHeight="1.2" class="djs-label" transform="matrix(-1.83697e-16, -1, 1, -1.83697e-16, 0, 250)"><tspan x="70.33333206176758" y="18.6">Hausärztliche Praxis</tspan></text></g><rect x="-5" y="-5" rx="4" width="610" height="260" style="fill: none;" class="djs-outline"/><rect style="fill: none; stroke-opacity: 0; stroke: white; stroke-width: 15px;" class="djs-hit djs-hit-no-move" x="0" y="0" width="600" height="250"/><rect style="fill: none; stroke-opacity: 0; stroke: white; stroke-width: 15px;" class="djs-hit djs-hit-click-stroke" x="0" y="0" width="600" height="250"/><rect style="fill: none; stroke-opacity: 0; stroke: white; stroke-width: 15px;" class="djs-hit djs-hit-all" x="0" y="0" width="30" height="250"/></g></g><g class="djs-group"><g class="djs-element djs-shape selected" data-element-id="Participant_0whntbe" transform="matrix(1, 0, 0, 1, 880, 1330)" style="display: block;"><g class="djs-visual"><rect x="0" y="0" width="600" height="250" rx="0" ry="0" style="stroke-linecap: round; stroke-linejoin: round; stroke: rgb(255, 146, 0); stroke-width: 1.5px; fill: white; fill-opacity: 0.95;"/><path style="fill: none; stroke-linecap: round; stroke-linejoin: round; stroke: rgb(255, 146, 0); stroke-width: 1.5px;" d="M30,0L30,250"/><text style="font-family: Arial, sans-serif; font-size: 12px; font-weight: normal; fill: rgb(255, 146, 0);" lineHeight="1.2" class="djs-label" transform="matrix(-1.83697e-16, -1, 1, -1.83697e-16, 0, 250)"><tspan x="71" y="18.6">Fachärztliche Praxis</tspan></text></g><rect x="-5" y="-5" rx="4" width="610" height="260" style="fill: none;" class="djs-outline"/><rect style="fill: none; stroke-opacity: 0; stroke: white; stroke-width: 15px;" class="djs-hit djs-hit-no-move" x="0" y="0" width="600" height="250"/><rect style="fill: none; stroke-opacity: 0; stroke: white; stroke-width: 15px;" class="djs-hit djs-hit-click-stroke" x="0" y="0" width="600" height="250"/><rect style="fill: none; stroke-opacity: 0; stroke: white; stroke-width: 15px;" class="djs-hit djs-hit-all" x="0" y="0" width="30" height="250"/></g></g><g class="djs-group"><g class="djs-element djs-shape" data-element-id="TextAnnotation_19sf7d0" transform="matrix(1, 0, 0, 1, 1450, 730)" style="display: block;"><g class="djs-visual"><rect x="0" y="0" width="160" height="82" rx="0" ry="0" style="stroke-linecap: round; stroke-linejoin: round; stroke: none; stroke-width: 2px; fill: none;"/><path style="fill: none; stroke-linecap: round; stroke-linejoin: round; stroke: rgb(0, 0, 0); stroke-width: 2px;" d="m 0, 0 m 10,0 l -10,0 l 0,82 l 10,0"/><text style="font-family: Arial, sans-serif; font-size: 12px; font-weight: normal; fill: rgb(0, 0, 0);" lineHeight="1.2" class="djs-label"><tspan x="7" y="17.799999999999997">Zeit bis zum ersten </tspan><tspan x="7" y="32.199999999999996">pathologischen Befund</tspan><tspan x="7" y="46.599999999999994">          (Primärdiagnose) max. 3</tspan><tspan x="7" y="60.99999999999999">Arbeitstage</tspan><tspan x="7" y="75.39999999999999">          [LC SoS 2.1.3]</tspan></text></g><rect style="fill: none; stroke-opacity: 0; stroke: white; stroke-width: 15px;" class="djs-hit djs-hit-all" x="0" y="0" width="160" height="82"/><rect x="-5" y="-5" rx="4" width="170" height="92" style="fill: none;" class="djs-outline"/></g></g><g class="djs-group"><g class="djs-element djs-shape" data-element-id="TextAnnotation_11f9q4r" transform="matrix(1, 0, 0, 1, 1410, 350)" style="display: block;"><g class="djs-visual"><rect x="0" y="0" width="150" height="53" rx="0" ry="0" style="stroke-linecap: round; stroke-linejoin: round; stroke: none; stroke-width: 2px; fill: none;"/><path style="fill: none; stroke-linecap: round; stroke-linejoin: round; stroke: rgb(0, 0, 0); stroke-width: 2px;" d="m 0, 0 m 10,0 l -10,0 l 0,53 l 10,0"/><text style="font-family: Arial, sans-serif; font-size: 12px; font-weight: normal; fill: rgb(0, 0, 0);" lineHeight="1.2" class="djs-label"><tspan x="7" y="17.799999999999997">gemäß </tspan><tspan x="7" y="32.199999999999996">Leitlinienempfehlungen; </tspan><tspan x="7" y="46.599999999999994">bei Bedarf Liquid Biopsy</tspan></text></g><rect style="fill: none; stroke-opacity: 0; stroke: white; stroke-width: 15px;" class="djs-hit djs-hit-all" x="0" y="0" width="150" height="53"/><rect x="-5" y="-5" rx="4" width="160" height="63" style="fill: none;" class="djs-outline"/></g></g><g class="djs-group"><g class="djs-element djs-shape" data-element-id="TextAnnotation_0e70ar9" transform="matrix(1, 0, 0, 1, 1220, 760)" style="display: block;"><g class="djs-visual"><rect x="0" y="0" width="164" height="82" rx="0" ry="0" style="stroke-linecap: round; stroke-linejoin: round; stroke: none; stroke-width: 2px; fill: none;"/><path style="fill: none; stroke-linecap: round; stroke-linejoin: round; stroke: rgb(0, 0, 0); stroke-width: 2px;" d="m 0, 0 m 10,0 l -10,0 l 0,82 l 10,0"/><text style="font-family: Arial, sans-serif; font-size: 12px; font-weight: normal; fill: rgb(0, 0, 0);" lineHeight="1.2" class="djs-label"><tspan x="7" y="17.799999999999997">in der Regel ambulant; </tspan><tspan x="7" y="32.199999999999996">Möglichkeiten:</tspan><tspan x="7" y="46.599999999999994">          Thorax-Röntgen, PE</tspan><tspan x="7" y="60.99999999999999">T/CT Thorax/Abdomen, </tspan><tspan x="7" y="75.39999999999999">MRT Schädel</tspan></text></g><rect style="fill: none; stroke-opacity: 0; stroke: white; stroke-width: 15px;" class="djs-hit djs-hit-all" x="0" y="0" width="164" height="82"/><rect x="-5" y="-5" rx="4" width="174" height="92" style="fill: none;" class="djs-outline"/></g></g><g class="djs-group"><g class="djs-element djs-connection" data-element-id="DataOutputAssociation_0sae2dt" style="display: block;"><g class="djs-visual"><defs><marker id="marker-5ezurheiddoen7eo8d5khpchc" viewBox="0 0 20 20" refX="11" refY="10" markerWidth="10" markerHeight="10" orient="auto"><path d="M 1 5 L 11 10 L 1 15" style="fill: none; stroke-linecap: round; stroke-linejoin: round; stroke: rgb(34, 36, 42); stroke-width: 1.5px; stroke-dasharray: 10000px, 1px;"/></marker></defs><path style="fill: none; stroke-linecap: round; stroke-linejoin: round; stroke: rgb(34, 36, 42); stroke-width: 2px; marker-end: url('#marker-5ezurheiddoen7eo8d5khpchc'); stroke-dasharray: 0px, 5px;" data-corner-radius="5" d="M1410,510L1410,610"/></g><path d="M1410,510L1410,610" style="fill: none; stroke-opacity: 0; stroke: white; stroke-width: 15px;" class="djs-hit djs-hit-stroke"/><rect x="1405" y="505" rx="4" width="10" height="110" style="fill: none;" class="djs-outline"/></g></g><g class="djs-group"><g class="djs-element djs-connection" data-element-id="Association_0swazng" style="display: block;"><g class="djs-visual"><path style="fill: none; stroke-linecap: round; stroke-linejoin: round; stroke: rgb(34, 36, 42); stroke-width: 2px; stroke-dasharray: 0px, 5px;" data-corner-radius="5" d="M1390,430L1410,388"/></g><path d="M1390,430L1410,388" style="fill: none; stroke-opacity: 0; stroke: white; stroke-width: 15px;" class="djs-hit djs-hit-stroke"/><rect x="1385" y="383" rx="4" width="30" height="52" style="fill: none;" class="djs-outline"/></g></g><g class="djs-group"><g class="djs-element djs-connection" data-element-id="Association_1dbypp4" style="display: block;"><g class="djs-visual"><path style="fill: none; stroke-linecap: round; stroke-linejoin: round; stroke: rgb(34, 36, 42); stroke-width: 2px; stroke-dasharray: 0px, 5px;" data-corner-radius="5" d="M1187,740L1220,790"/></g><path d="M1187,740L1220,790" style="fill: none; stroke-opacity: 0; stroke: white; stroke-width: 15px;" class="djs-hit djs-hit-stroke"/><rect x="1182" y="735" rx="4" width="43" height="60" style="fill: none;" class="djs-outline"/></g></g><g class="djs-group"><g class="djs-element djs-connection" data-element-id="Association_0zm9y8e" style="display: block;"><g class="djs-visual"><path style="fill: none; stroke-linecap: round; stroke-linejoin: round; stroke: rgb(34, 36, 42); stroke-width: 2px; stroke-dasharray: 0px, 5px;" data-corner-radius="5" d="M1428,652L1513,730"/></g><path d="M1428,652L1513,730" style="fill: none; stroke-opacity: 0; stroke: white; stroke-width: 15px;" class="djs-hit djs-hit-stroke"/><rect x="1423" y="647" rx="4" width="95" height="88" style="fill: none;" class="djs-outline"/></g></g></svg>