<?xml version="1.0" encoding="utf-8"?>
<!-- created with bpmn-js / http://bpmn.io -->
<!DOCTYPE svg PUBLIC "-//W3C//DTD SVG 1.1//EN" "http://www.w3.org/Graphics/SVG/1.1/DTD/svg11.dtd">
<svg xmlns="http://www.w3.org/2000/svg" xmlns:xlink="http://www.w3.org/1999/xlink" width="1290" height="720" viewBox="225 125 1290 720" version="1.1"><g class="djs-group"><g class="djs-element djs-shape" data-element-id="Participant_0phwomt" transform="matrix(1, 0, 0, 1, 230, 130)" style="display: block;"><g class="djs-visual"><rect x="0" y="0" width="1280" height="710" rx="0" ry="0" style="stroke-linecap: round; stroke-linejoin: round; stroke: rgb(34, 36, 42); stroke-width: 1.5px; fill: white; fill-opacity: 0.95;"/><path style="fill: none; stroke-linecap: round; stroke-linejoin: round; stroke: rgb(34, 36, 42); stroke-width: 1.5px;" d="M30,0L30,710"/><text style="font-family: Arial, sans-serif; font-size: 12px; font-weight: normal; fill: rgb(34, 36, 42);" lineHeight="1.2" class="djs-label" transform="matrix(-1.83697e-16, -1, 1, -1.83697e-16, 0, 710)"><tspan x="270.2249984741211" y="18.6">Molekulares Tumorboard (MTB)</tspan></text></g><rect x="-5" y="-5" rx="4" width="1290" height="720" style="fill: none;" class="djs-outline"/><rect style="fill: none; stroke-opacity: 0; stroke: white; stroke-width: 15px;" class="djs-hit djs-hit-no-move" x="0" y="0" width="1280" height="710"/><rect style="fill: none; stroke-opacity: 0; stroke: white; stroke-width: 15px;" class="djs-hit djs-hit-click-stroke" x="0" y="0" width="1280" height="710"/><rect style="fill: none; stroke-opacity: 0; stroke: white; stroke-width: 15px;" class="djs-hit djs-hit-all" x="0" y="0" width="30" height="710"/></g><g class="djs-children"><g class="djs-group"><g class="djs-element djs-shape" data-element-id="StartEvent_1" transform="matrix(1, 0, 0, 1, 312, 372)" style="display: block;"><g class="djs-visual"><circle cx="18" cy="18" r="18" style="stroke-linecap: round; stroke-linejoin: round; stroke: rgb(0, 0, 0); stroke-width: 2px; fill: white; fill-opacity: 0.95;"/></g><rect style="fill: none; stroke-opacity: 0; stroke: white; stroke-width: 15px;" class="djs-hit djs-hit-all" x="0" y="0" width="36" height="36"/><circle cx="18" cy="18" r="23" style="fill: none;" class="djs-outline"/></g></g><g class="djs-group"><g class="djs-element djs-shape" data-element-id="StartEvent_1_label" transform="matrix(1, 0, 0, 1, 287, 430)" style="display: block;"><g class="djs-visual"><text style="font-family: Arial, sans-serif; font-size: 11px; font-weight: normal; fill: rgb(0, 0, 0); fill-opacity: 0.95;" lineHeight="1.2" class="djs-label"><tspan x="15.291667938232422" y="9.899999999999999">Bestimmte </tspan><tspan x="9.175003051757812" y="23.099999999999998">Patienten mit </tspan><tspan x="1.8333358764648438" y="36.3">fortgeschrittenen</tspan><tspan x="0.9083328247070312" y="49.5">Krebserkrankung</tspan><tspan x="36.67500114440918" y="62.7">en</tspan><tspan x="0" y="75.9">und Patienten mit</tspan><tspan x="12.216667175292969" y="89.10000000000001">besonderen </tspan><tspan x="11.608333587646484" y="102.30000000000001">genetischen </tspan><tspan x="5.1833343505859375" y="115.50000000000001">Konstellationen</tspan></text></g><rect style="fill: none; stroke-opacity: 0; stroke: white; stroke-width: 15px;" class="djs-hit djs-hit-all" x="0" y="0" width="86" height="119"/><rect x="-5" y="-5" rx="4" width="96" height="129" style="fill: none;" class="djs-outline"/></g></g><g class="djs-group"><g class="djs-element djs-shape" data-element-id="Activity_1vtq62m" transform="matrix(1, 0, 0, 1, 540, 350)" style="display: block;"><g class="djs-visual"><rect x="0" y="0" width="100" height="80" rx="10" ry="10" style="stroke-linecap: round; stroke-linejoin: round; stroke: rgb(34, 36, 42); stroke-width: 2px; fill: white; fill-opacity: 0.95;"/><text style="font-family: Arial, sans-serif; font-size: 12px; font-weight: normal; fill: rgb(34, 36, 42); fill-opacity: 0.95;" lineHeight="1.2" class="djs-label"><tspan x="31.66666603088379" y="29.200000000000003">(Erst-) </tspan><tspan x="10.658332824707031" y="43.6">Vorstellung im </tspan><tspan x="10.666667938232422" y="58">MTB (optional)</tspan></text></g><rect style="fill: none; stroke-opacity: 0; stroke: white; stroke-width: 15px;" class="djs-hit djs-hit-all" x="0" y="0" width="100" height="80"/><rect x="-5" y="-5" rx="14" width="110" height="90" style="fill: none;" class="djs-outline"/></g></g><g class="djs-group"><g class="djs-element djs-shape" data-element-id="Activity_010pmlt" transform="matrix(1, 0, 0, 1, 690, 350)" style="display: block;"><g class="djs-visual"><rect x="0" y="0" width="100" height="80" rx="10" ry="10" style="stroke-linecap: round; stroke-linejoin: round; stroke: rgb(34, 36, 42); stroke-width: 2px; fill: white; fill-opacity: 0.95;"/><text style="font-family: Arial, sans-serif; font-size: 12px; font-weight: normal; fill: rgb(34, 36, 42); fill-opacity: 0.95;" lineHeight="1.2" class="djs-label"><tspan x="15.358334302902222" y="7.599999999999996">Anforderung </tspan><tspan x="36.5" y="21.999999999999993">einer</tspan><tspan x="9.333332061767578" y="36.39999999999999">humangenetisc</tspan><tspan x="9" y="50.79999999999999">hen/molekularp</tspan><tspan x="11.333332061767578" y="65.19999999999999">athologischen </tspan><tspan x="28.6916663646698" y="79.6">Analyse</tspan></text></g><rect style="fill: none; stroke-opacity: 0; stroke: white; stroke-width: 15px;" class="djs-hit djs-hit-all" x="0" y="0" width="100" height="80"/><rect x="-5" y="-5" rx="14" width="110" height="90" style="fill: none;" class="djs-outline"/></g></g><g class="djs-group"><g class="djs-element djs-shape" data-element-id="Activity_05w6tvq" transform="matrix(1, 0, 0, 1, 810, 350)" style="display: block;"><g class="djs-visual"><rect x="0" y="0" width="100" height="80" rx="10" ry="10" style="stroke-linecap: round; stroke-linejoin: round; stroke: rgb(34, 36, 42); stroke-width: 2px; fill: white; fill-opacity: 0.95;"/><text style="font-family: Arial, sans-serif; font-size: 12px; font-weight: normal; fill: rgb(34, 36, 42); fill-opacity: 0.95;" lineHeight="1.2" class="djs-label"><tspan x="12.333332061767578" y="29.200000000000003">Bioinformatisc</tspan><tspan x="8.666667938232422" y="43.6">he Analyse und</tspan><tspan x="16.024998426437378" y="58">Aufbereitung</tspan></text></g><rect style="fill: none; stroke-opacity: 0; stroke: white; stroke-width: 15px;" class="djs-hit djs-hit-all" x="0" y="0" width="100" height="80"/><rect x="-5" y="-5" rx="14" width="110" height="90" style="fill: none;" class="djs-outline"/></g></g><g class="djs-group"><g class="djs-element djs-shape" data-element-id="Activity_0n7syw4" transform="matrix(1, 0, 0, 1, 930, 350)" style="display: block;"><g class="djs-visual"><rect x="0" y="0" width="100" height="80" rx="10" ry="10" style="stroke-linecap: round; stroke-linejoin: round; stroke: rgb(34, 36, 42); stroke-width: 2px; fill: white; fill-opacity: 0.95;"/><text style="font-family: Arial, sans-serif; font-size: 12px; font-weight: normal; fill: rgb(34, 36, 42); fill-opacity: 0.95;" lineHeight="1.2" class="djs-label"><tspan x="14.358334302902222" y="22">Aufbereitung </tspan><tspan x="39.583333015441895" y="36.4">der </tspan><tspan x="7.333332061767578" y="50.8">Befunde/Bericht</tspan><tspan x="24" y="65.19999999999999">erstellung</tspan></text></g><rect style="fill: none; stroke-opacity: 0; stroke: white; stroke-width: 15px;" class="djs-hit djs-hit-all" x="0" y="0" width="100" height="80"/><rect x="-5" y="-5" rx="14" width="110" height="90" style="fill: none;" class="djs-outline"/></g></g><g class="djs-group"><g class="djs-element djs-shape" data-element-id="Activity_1azhtk5" transform="matrix(1, 0, 0, 1, 400, 350)" style="display: block;"><g class="djs-visual"><rect x="0" y="0" width="100" height="80" rx="10" ry="10" style="stroke-linecap: round; stroke-linejoin: round; stroke: rgb(0, 0, 0); stroke-width: 2px; fill: white; fill-opacity: 0.95;"/><text style="font-family: Arial, sans-serif; font-size: 12px; font-weight: normal; fill: rgb(0, 0, 0); fill-opacity: 0.95;" lineHeight="1.2" class="djs-label"><tspan x="8.358334302902222" y="22">Anmeldung des</tspan><tspan x="14.25" y="36.4">Patienten für </tspan><tspan x="9.333332061767578" y="50.8">das molekulare</tspan><tspan x="17.558334350585938" y="65.19999999999999">Tumorboard</tspan></text></g><rect style="fill: none; stroke-opacity: 0; stroke: white; stroke-width: 15px;" class="djs-hit djs-hit-all" x="0" y="0" width="100" height="80"/><rect x="-5" y="-5" rx="14" width="110" height="90" style="fill: none;" class="djs-outline"/></g></g><g class="djs-group"><g class="djs-element djs-shape" data-element-id="Activity_1phtl9y" transform="matrix(1, 0, 0, 1, 1170, 350)" style="display: block;"><g class="djs-visual"><rect x="0" y="0" width="100" height="80" rx="10" ry="10" style="stroke-linecap: round; stroke-linejoin: round; stroke: rgb(34, 36, 42); stroke-width: 2px; fill: white; fill-opacity: 0.95;"/><text style="font-family: Arial, sans-serif; font-size: 12px; font-weight: normal; fill: rgb(34, 36, 42); fill-opacity: 0.95;" lineHeight="1.2" class="djs-label"><tspan x="23.33333396911621" y="29.200000000000003">(Wieder-) </tspan><tspan x="12.325000762939453" y="43.6">Vorstellung im</tspan><tspan x="37.333333015441895" y="58">MTB</tspan></text></g><rect style="fill: none; stroke-opacity: 0; stroke: white; stroke-width: 15px;" class="djs-hit djs-hit-all" x="0" y="0" width="100" height="80"/><rect x="-5" y="-5" rx="14" width="110" height="90" style="fill: none;" class="djs-outline"/></g></g><g class="djs-group"><g class="djs-element djs-shape" data-element-id="Event_0zr1wmc" transform="matrix(1, 0, 0, 1, 1092, 372)" style="display: block;"><g class="djs-visual"><circle cx="18" cy="18" r="18" style="stroke-linecap: round; stroke-linejoin: round; stroke: rgb(34, 36, 42); stroke-width: 1.5px; fill: white; fill-opacity: 0.95;"/><circle cx="18" cy="18" r="15" style="stroke-linecap: round; stroke-linejoin: round; stroke: rgb(34, 36, 42); stroke-width: 1.5px; fill: none;"/><path style="fill: white; stroke-linecap: round; stroke-linejoin: round; stroke: rgb(34, 36, 42); stroke-width: 1px;" d="m 8.459999999999999,11.34 l 0,12.6 l 18.900000000000002,0 l 0,-12.6 z l 9.450000000000001,5.4 l 9.450000000000001,-5.4"/></g><rect style="fill: none; stroke-opacity: 0; stroke: white; stroke-width: 15px;" class="djs-hit djs-hit-all" x="0" y="0" width="36" height="36"/><circle cx="18" cy="18" r="23" style="fill: none;" class="djs-outline"/></g></g><g class="djs-group"><g class="djs-element djs-shape" data-element-id="Event_0zr1wmc_label" transform="matrix(1, 0, 0, 1, 1080, 415)" style="display: block;"><g class="djs-visual"><text style="font-family: Arial, sans-serif; font-size: 11px; font-weight: normal; fill: rgb(34, 36, 42); fill-opacity: 0.95;" lineHeight="1.2" class="djs-label"><tspan x="1.5249977111816406" y="9.899999999999999">Genetische </tspan><tspan x="0" y="23.099999999999998">Befunde mit </tspan><tspan x="1.8249988555908203" y="36.3">annotierten </tspan><tspan x="7.733331680297852" y="49.5">Varianten</tspan></text></g><rect style="fill: none; stroke-opacity: 0; stroke: white; stroke-width: 15px;" class="djs-hit djs-hit-all" x="0" y="0" width="62" height="53"/><rect x="-5" y="-5" rx="4" width="72" height="63" style="fill: none;" class="djs-outline"/></g></g><g class="djs-group"><g class="djs-element djs-shape" data-element-id="DataObjectReference_0oer6b2" transform="matrix(1, 0, 0, 1, 1202, 530)" style="display: block;"><g class="djs-visual"><path style="fill: white; stroke-linecap: round; stroke-linejoin: round; stroke: rgb(0, 0, 0); stroke-width: 2px; fill-opacity: 0.95;" d="m 0,0 28.23529411764706,0 7.058823529411765,8.196721311475411 0,40.98360655737705 -35.294117647058826,0 0,-49.18032786885246 28.23529411764706,0 0,8.196721311475411 7.058823529411765,0"/><path style="fill: white; stroke-linecap: round; stroke-linejoin: round; stroke: rgb(0, 0, 0); stroke-width: 2px;" d="m11.88,32 m 3,2 l 0,10 m 3,-10 l 0,10 m 3,-10 l 0,10"/></g><rect style="fill: none; stroke-opacity: 0; stroke: white; stroke-width: 15px;" class="djs-hit djs-hit-all" x="0" y="0" width="36" height="50"/><path d="M44.7648 11.3263L36.9892 2.64074C36.0451 1.58628 34.5651 0.988708 33.1904 0.988708H5.98667C3.22688 0.988708 0.989624 3.34892 0.989624 6.26039V55.0235C0.989624 57.9349 3.22688 60.2952 5.98667 60.2952H40.966C43.7257 60.2952 45.963 57.9349 45.963 55.0235V14.9459C45.963 13.5998 45.6407 12.3048 44.7648 11.3263Z" style="stroke-width: 2px; fill: none;" transform="translate(-6, -6)" class="djs-outline"/></g></g><g class="djs-group"><g class="djs-element djs-shape" data-element-id="DataObjectReference_0oer6b2_label" transform="matrix(1, 0, 0, 1, 1187, 587)" style="display: block;"><g class="djs-visual"><text style="font-family: Arial, sans-serif; font-size: 11px; font-weight: normal; fill: rgb(0, 0, 0); fill-opacity: 0.95;" lineHeight="1.2" class="djs-label"><tspan x="0" y="9.899999999999999">Empfehlungen </tspan><tspan x="14.99166488647461" y="23.099999999999998">des MTB</tspan></text></g><rect style="fill: none; stroke-opacity: 0; stroke: white; stroke-width: 15px;" class="djs-hit djs-hit-all" x="0" y="0" width="74" height="27"/><rect x="-5" y="-5" rx="4" width="84" height="37" style="fill: none;" class="djs-outline"/></g></g><g class="djs-group"><g class="djs-element djs-shape" data-element-id="Event_0cokjfx" transform="matrix(1, 0, 0, 1, 1332, 372)" style="display: block;"><g class="djs-visual"><circle cx="18" cy="18" r="18" style="stroke-linecap: round; stroke-linejoin: round; stroke: rgb(34, 36, 42); stroke-width: 4px; fill: white; fill-opacity: 0.95;"/></g><rect style="fill: none; stroke-opacity: 0; stroke: white; stroke-width: 15px;" class="djs-hit djs-hit-all" x="0" y="0" width="36" height="36"/><circle cx="18" cy="18" r="24" style="fill: none;" class="djs-outline"/></g></g><g class="djs-group"><g class="djs-element djs-shape" data-element-id="Event_0cokjfx_label" transform="matrix(1, 0, 0, 1, 1315, 415)" style="display: block;"><g class="djs-visual"><text style="font-family: Arial, sans-serif; font-size: 11px; font-weight: normal; fill: rgb(34, 36, 42); fill-opacity: 0.95;" lineHeight="1.2" class="djs-label"><tspan x="0" y="9.899999999999999">Ende des MTB</tspan></text></g><rect style="fill: none; stroke-opacity: 0; stroke: white; stroke-width: 15px;" class="djs-hit djs-hit-all" x="0" y="0" width="73" height="14"/><rect x="-5" y="-5" rx="4" width="83" height="24" style="fill: none;" class="djs-outline"/></g></g><g class="djs-group"><g class="djs-element djs-shape" data-element-id="QualityIndicator_17fkpb1" transform="matrix(1, 0, 0, 1, 1292, 452)" style="display: block;"><g class="djs-visual"><circle cx="18" cy="18" r="18" style="stroke-linecap: round; stroke-linejoin: round; stroke: rgb(34, 36, 42); stroke-width: 2px; fill: rgb(222, 206, 226); fill-opacity: 0.95; stroke-opacity: 0.95;"/><path style="fill: rgb(34, 36, 42); stroke-linecap: round; stroke-linejoin: round; stroke: none; stroke-width: 2px; fill-opacity: 0.95; stroke-opacity: 0.95;" d="m 0,0 m 19.699,12.899 c -1.079,-1.183 -2.637,-1.774 -4.672,-1.774 c -2.038,0 -3.602,0.588 -4.695,1.76 c -1.09,1.172 -1.633,2.87 -1.633,5.094 c 0,2.224 0.543,3.929 1.633,5.119 c 1.086,1.186 2.647,1.777 4.678,1.777 c 0,0 0.21,0 0.21,0 c 0,0 2.427,3.094 2.427,3.094 c 0,0 3.599,0 3.599,0 c 0,0 -3.19,-3.689 -3.19,-3.689 c 1.069,-0.495 1.88,-1.272 2.434,-2.334 c 0.553,-1.062 0.831,-2.378 0.831,-3.953 c 0,-2.214 -0.539,-3.915 -1.622,-5.094 zm -7.209,1.705 c 0.571,-0.76 1.417,-1.142 2.537,-1.142 c 2.231,0 3.345,1.513 3.345,4.531 c 0,3.018 -1.121,4.524 -3.369,4.524 c -1.117,0 -1.956,-0.378 -2.516,-1.138 c -0.564,-0.76 -0.846,-1.887 -0.846,-3.386 c 0,-1.499 0.282,-2.626 0.849,-3.389 zm 14.4,9.927 c 0,0 0,-13.406 0,-13.406 c 0,0 -2.808,0 -2.808,0 c 0,0 0,13.406 0,13.406 c 0,0 2.808,0 2.808,0 z"/></g><rect style="fill: none; stroke-opacity: 0; stroke: white; stroke-width: 15px;" class="djs-hit djs-hit-all" x="0" y="0" width="36" height="36"/><circle cx="18" cy="18" r="23" style="fill: none;" class="djs-outline"/></g></g><g class="djs-group"><g class="djs-element djs-shape" data-element-id="QualityIndicator_17fkpb1_label" transform="matrix(1, 0, 0, 1, 1269, 495)" style="display: block;"><g class="djs-visual"><text style="font-family: Arial, sans-serif; font-size: 11px; font-weight: normal; fill: rgb(34, 36, 42); fill-opacity: 0.95;" lineHeight="1.2" class="djs-label"><tspan x="33.32500076293945" y="9.899999999999999">#2 </tspan><tspan x="0" y="23.099999999999998">prätherapeutisch</tspan><tspan x="11.641666412353516" y="36.3">es TB/MTB-</tspan><tspan x="21.399999618530273" y="49.5">Meeting</tspan></text></g><rect style="fill: none; stroke-opacity: 0; stroke: white; stroke-width: 15px;" class="djs-hit djs-hit-all" x="0" y="0" width="82" height="53"/><rect x="-5" y="-5" rx="4" width="92" height="63" style="fill: none;" class="djs-outline"/></g></g><g class="djs-group"><g class="djs-element djs-shape" data-element-id="QualityIndicator_1jvrzkg" transform="matrix(1, 0, 0, 1, 1372, 452)" style="display: block;"><g class="djs-visual"><circle cx="18" cy="18" r="18" style="stroke-linecap: round; stroke-linejoin: round; stroke: rgb(34, 36, 42); stroke-width: 2px; fill: rgb(220, 208, 226); fill-opacity: 0.95; stroke-opacity: 0.95;"/><path style="fill: rgb(34, 36, 42); stroke-linecap: round; stroke-linejoin: round; stroke: none; stroke-width: 2px; fill-opacity: 0.95; stroke-opacity: 0.95;" d="m 0,0 m 19.699,12.899 c -1.079,-1.183 -2.637,-1.774 -4.672,-1.774 c -2.038,0 -3.602,0.588 -4.695,1.76 c -1.09,1.172 -1.633,2.87 -1.633,5.094 c 0,2.224 0.543,3.929 1.633,5.119 c 1.086,1.186 2.647,1.777 4.678,1.777 c 0,0 0.21,0 0.21,0 c 0,0 2.427,3.094 2.427,3.094 c 0,0 3.599,0 3.599,0 c 0,0 -3.19,-3.689 -3.19,-3.689 c 1.069,-0.495 1.88,-1.272 2.434,-2.334 c 0.553,-1.062 0.831,-2.378 0.831,-3.953 c 0,-2.214 -0.539,-3.915 -1.622,-5.094 zm -7.209,1.705 c 0.571,-0.76 1.417,-1.142 2.537,-1.142 c 2.231,0 3.345,1.513 3.345,4.531 c 0,3.018 -1.121,4.524 -3.369,4.524 c -1.117,0 -1.956,-0.378 -2.516,-1.138 c -0.564,-0.76 -0.846,-1.887 -0.846,-3.386 c 0,-1.499 0.282,-2.626 0.849,-3.389 zm 14.4,9.927 c 0,0 0,-13.406 0,-13.406 c 0,0 -2.808,0 -2.808,0 c 0,0 0,13.406 0,13.406 c 0,0 2.808,0 2.808,0 z"/></g><rect style="fill: none; stroke-opacity: 0; stroke: white; stroke-width: 15px;" class="djs-hit djs-hit-all" x="0" y="0" width="36" height="36"/><circle cx="18" cy="18" r="23" style="fill: none;" class="djs-outline"/></g></g><g class="djs-group"><g class="djs-element djs-shape" data-element-id="QualityIndicator_1jvrzkg_label" transform="matrix(1, 0, 0, 1, 1351, 495)" style="display: block;"><g class="djs-visual"><text style="font-family: Arial, sans-serif; font-size: 11px; font-weight: normal; fill: rgb(34, 36, 42); fill-opacity: 0.95;" lineHeight="1.2" class="djs-label"><tspan x="31.17499828338623" y="9.899999999999999">#18</tspan><tspan x="13.316665649414062" y="23.099999999999998">          'Zugang zu</tspan><tspan x="14.666666030883789" y="36.3">klinischen </tspan><tspan x="9.474998474121094" y="49.5">Studien und </tspan><tspan x="0" y="62.7">Forschungsstudi</tspan><tspan x="34.23333168029785" y="75.9">en</tspan></text></g><rect style="fill: none; stroke-opacity: 0; stroke: white; stroke-width: 15px;" class="djs-hit djs-hit-all" x="0" y="0" width="81" height="80"/><rect x="-5" y="-5" rx="4" width="91" height="90" style="fill: none;" class="djs-outline"/></g></g><g class="djs-group"><g class="djs-element djs-shape" data-element-id="Activity_1s1obtx" transform="matrix(1, 0, 0, 1, 600, 690)" style="display: block;"><g class="djs-visual"><rect x="0" y="0" width="100" height="80" rx="10" ry="10" style="stroke-linecap: round; stroke-linejoin: round; stroke: rgb(255, 146, 0); stroke-width: 2px; fill: white; fill-opacity: 0.95;"/><text style="font-family: Arial, sans-serif; font-size: 12px; font-weight: normal; fill: rgb(255, 146, 0); fill-opacity: 0.95;" lineHeight="1.2" class="djs-label"><tspan x="8.333332061767578" y="36.4">Humangenetisc</tspan><tspan x="13" y="50.8">he Aufklärung</tspan></text></g><rect style="fill: none; stroke-opacity: 0; stroke: white; stroke-width: 15px;" class="djs-hit djs-hit-all" x="0" y="0" width="100" height="80"/><rect x="-5" y="-5" rx="14" width="110" height="90" style="fill: none;" class="djs-outline"/></g></g><g class="djs-group"><g class="djs-element djs-shape" data-element-id="Activity_11na49y" transform="matrix(1, 0, 0, 1, 460, 690)" style="display: block;"><g class="djs-visual"><rect x="0" y="0" width="100" height="80" rx="10" ry="10" style="stroke-linecap: round; stroke-linejoin: round; stroke: rgb(255, 146, 0); stroke-width: 2px; fill: white; fill-opacity: 0.95;"/><text style="font-family: Arial, sans-serif; font-size: 12px; font-weight: normal; fill: rgb(255, 146, 0); fill-opacity: 0.95;" lineHeight="1.2" class="djs-label"><tspan x="14.325000762939453" y="29.200000000000003">Vorbereitung </tspan><tspan x="9.99166488647461" y="43.6">des Patienten/ </tspan><tspan x="37.333333015441895" y="58">Falls</tspan></text></g><rect style="fill: none; stroke-opacity: 0; stroke: white; stroke-width: 15px;" class="djs-hit djs-hit-all" x="0" y="0" width="100" height="80"/><rect x="-5" y="-5" rx="14" width="110" height="90" style="fill: none;" class="djs-outline"/></g></g><g class="djs-group"><g class="djs-element djs-shape" data-element-id="Activity_1tpwa8j" transform="matrix(1, 0, 0, 1, 1240, 730)" style="display: block;"><g class="djs-visual"><rect x="0" y="0" width="100" height="80" rx="10" ry="10" style="stroke-linecap: round; stroke-linejoin: round; stroke: rgb(255, 146, 0); stroke-width: 2px; fill: white; fill-opacity: 0.95;"/><text style="font-family: Arial, sans-serif; font-size: 12px; font-weight: normal; fill: rgb(255, 146, 0); fill-opacity: 0.95;" lineHeight="1.2" class="djs-label"><tspan x="11.658332824707031" y="14.799999999999999">Überweisung/ </tspan><tspan x="22" y="29.199999999999996">Übergang </tspan><tspan x="25.991666793823242" y="43.599999999999994">Zentren/ </tspan><tspan x="11.666667938232422" y="57.99999999999999">Niedergelasse</tspan><tspan x="43.333333015441895" y="72.39999999999999">ne</tspan></text></g><rect style="fill: none; stroke-opacity: 0; stroke: white; stroke-width: 15px;" class="djs-hit djs-hit-all" x="0" y="0" width="100" height="80"/><rect x="-5" y="-5" rx="14" width="110" height="90" style="fill: none;" class="djs-outline"/></g></g><g class="djs-group"><g class="djs-element djs-shape" data-element-id="Activity_1kyvkmk" transform="matrix(1, 0, 0, 1, 1120, 730)" style="display: block;"><g class="djs-visual"><rect x="0" y="0" width="100" height="80" rx="10" ry="10" style="stroke-linecap: round; stroke-linejoin: round; stroke: rgb(255, 146, 0); stroke-width: 2px; fill: white; fill-opacity: 0.95;"/><text style="font-family: Arial, sans-serif; font-size: 12px; font-weight: normal; fill: rgb(255, 146, 0); fill-opacity: 0.95;" lineHeight="1.2" class="djs-label"><tspan x="9.333332061767578" y="36.4">Befundübermitt</tspan><tspan x="38.666666984558105" y="50.8">lung</tspan></text></g><rect style="fill: none; stroke-opacity: 0; stroke: white; stroke-width: 15px;" class="djs-hit djs-hit-all" x="0" y="0" width="100" height="80"/><rect x="-5" y="-5" rx="14" width="110" height="90" style="fill: none;" class="djs-outline"/></g></g><g class="djs-group"><g class="djs-element djs-shape" data-element-id="TextAnnotation_0rm75di" transform="matrix(1, 0, 0, 1, 890, 479)" style="display: block;"><g class="djs-visual"><rect x="0" y="0" width="220" height="168" rx="0" ry="0" style="stroke-linecap: round; stroke-linejoin: round; stroke: none; stroke-width: 2px; fill: none;"/><path style="fill: none; stroke-linecap: round; stroke-linejoin: round; stroke: rgb(34, 36, 42); stroke-width: 2px;" d="m 0, 0 m 10,0 l -10,0 l 0,168 l 10,0"/><text style="font-family: Arial, sans-serif; font-size: 12px; font-weight: normal; fill: rgb(34, 36, 42);" lineHeight="1.2" class="djs-label"><tspan x="7" y="17.799999999999997">Dokumentation der verwendeten</tspan><tspan x="7" y="32.199999999999996">          Analysewerkzeuge, unter anderem:</tspan><tspan x="7" y="46.599999999999994">          * Bezeichnung/Benennung der v</tspan><tspan x="7" y="60.99999999999999">erwendeten Werkzeuge mit den </tspan><tspan x="7" y="75.39999999999999">jeweiligen Versionen</tspan><tspan x="7" y="89.79999999999998">          * Definition und Angabe der B</tspan><tspan x="7" y="104.19999999999999">erechnung von Metriken wie TMB </tspan><tspan x="7" y="118.6">(Tumormutationslast), HRD, MSI</tspan><tspan x="7" y="133">          * Spezifikation der Datenbanken</tspan><tspan x="7" y="147.4">          * Angabe der Cut-offs (Toleranzw</tspan><tspan x="7" y="161.8">erte) für die einzelnen Berechnungen</tspan></text></g><rect style="fill: none; stroke-opacity: 0; stroke: white; stroke-width: 15px;" class="djs-hit djs-hit-all" x="0" y="0" width="220" height="168"/><rect x="-5" y="-5" rx="4" width="230" height="178" style="fill: none;" class="djs-outline"/></g></g><g class="djs-group"><g class="djs-element djs-shape" data-element-id="TextAnnotation_1er2nm3" transform="matrix(1, 0, 0, 1, 510, 479)" style="display: block;"><g class="djs-visual"><rect x="0" y="0" width="150" height="125" rx="0" ry="0" style="stroke-linecap: round; stroke-linejoin: round; stroke: none; stroke-width: 2px; fill: none;"/><path style="fill: none; stroke-linecap: round; stroke-linejoin: round; stroke: rgb(34, 36, 42); stroke-width: 2px;" d="m 0, 0 m 10,0 l -10,0 l 0,125.00000000000001 l 10,0"/><text style="font-family: Arial, sans-serif; font-size: 12px; font-weight: normal; fill: rgb(34, 36, 42);" lineHeight="1.2" class="djs-label"><tspan x="7" y="17.799999999999997">Teilnehmende: </tspan><tspan x="7" y="32.199999999999996">Pathologe, </tspan><tspan x="7" y="46.599999999999994">Humangenetik,</tspan><tspan x="7" y="60.99999999999999">          Hämatologie-/Onk</tspan><tspan x="7" y="75.39999999999999">ologie-Facharzt, </tspan><tspan x="7" y="89.79999999999998">tumorspezifische </tspan><tspan x="7" y="104.19999999999999">Fachdisziplinen </tspan><tspan x="7" y="118.6">(Tumorentitätsexperte)</tspan></text></g><rect style="fill: none; stroke-opacity: 0; stroke: white; stroke-width: 15px;" class="djs-hit djs-hit-all" x="0" y="0" width="150" height="125"/><rect x="-5" y="-5" rx="4" width="160" height="135" style="fill: none;" class="djs-outline"/></g></g><g class="djs-group"><g class="djs-element djs-shape" data-element-id="TextAnnotation_01o8n4o" transform="matrix(1, 0, 0, 1, 660, 479)" style="display: block;"><g class="djs-visual"><rect x="0" y="0" width="225" height="140" rx="0" ry="0" style="stroke-linecap: round; stroke-linejoin: round; stroke: none; stroke-width: 2px; fill: none;"/><path style="fill: none; stroke-linecap: round; stroke-linejoin: round; stroke: rgb(34, 36, 42); stroke-width: 2px;" d="m 0, 0 m 10,0 l -10,0 l 0,140 l 10,0"/><text style="font-family: Arial, sans-serif; font-size: 12px; font-weight: normal; fill: rgb(34, 36, 42);" lineHeight="1.2" class="djs-label"><tspan x="7" y="17.799999999999997">Next-Generation Sequencing (NGS):</tspan><tspan x="7" y="32.199999999999996">          * DNA: Panel</tspan><tspan x="7" y="46.599999999999994">          * oder WES, (WGS)</tspan><tspan x="7" y="60.99999999999999">          bei Bedarf zusätzliche Diagnostik:</tspan><tspan x="7" y="75.39999999999999">          * RNA-Panel, Transkriptom</tspan><tspan x="7" y="89.79999999999998">          * weitere optionale Methoden</tspan><tspan x="7" y="104.19999999999999">          bei Auffälligkeiten Validierung </tspan><tspan x="7" y="118.6">durch Standard-</tspan><tspan x="7" y="133">Sequenzierungsmethoden</tspan></text></g><rect style="fill: none; stroke-opacity: 0; stroke: white; stroke-width: 15px;" class="djs-hit djs-hit-all" x="0" y="0" width="225" height="140"/><rect x="-5" y="-5" rx="4" width="235" height="150" style="fill: none;" class="djs-outline"/></g></g><g class="djs-group"><g class="djs-element djs-shape" data-element-id="TextAnnotation_116k17m" transform="matrix(1, 0, 0, 1, 1370, 259)" style="display: block;"><g class="djs-visual"><rect x="0" y="0" width="120" height="82" rx="0" ry="0" style="stroke-linecap: round; stroke-linejoin: round; stroke: none; stroke-width: 2px; fill: none;"/><path style="fill: none; stroke-linecap: round; stroke-linejoin: round; stroke: rgb(34, 36, 42); stroke-width: 2px;" d="m 0, 0 m 10,0 l -10,0 l 0,82 l 10,0"/><text style="font-family: Arial, sans-serif; font-size: 12px; font-weight: normal; fill: rgb(34, 36, 42);" lineHeight="1.2" class="djs-label"><tspan x="7" y="17.799999999999997">Studienteilnahme </tspan><tspan x="7" y="32.199999999999996">(frühe Phase),</tspan><tspan x="7" y="46.599999999999994">          Off-Label-The</tspan><tspan x="7" y="60.99999999999999">rapie, keine </tspan><tspan x="7" y="75.39999999999999">weitere Therapie</tspan></text></g><rect style="fill: none; stroke-opacity: 0; stroke: white; stroke-width: 15px;" class="djs-hit djs-hit-all" x="0" y="0" width="120" height="82"/><rect x="-5" y="-5" rx="4" width="130" height="92" style="fill: none;" class="djs-outline"/></g></g><g class="djs-group"><g class="djs-element djs-connection" data-element-id="Flow_1fu9wq0" style="display: block;"><g class="djs-visual"><defs><marker id="marker-e76lwb6x5w48c8gz1o2p44mes" viewBox="0 0 20 20" refX="11" refY="10" markerWidth="10" markerHeight="10" orient="auto"><path d="M 1 5 L 11 10 L 1 15 Z" style="stroke-linecap: round; stroke-linejoin: round; stroke: rgb(34, 36, 42); stroke-width: 1px; fill: rgb(34, 36, 42);"/></marker></defs><path style="fill: none; stroke-linecap: round; stroke-linejoin: round; stroke: rgb(34, 36, 42); stroke-width: 2px; marker-end: url('#marker-e76lwb6x5w48c8gz1o2p44mes');" data-corner-radius="5" d="M790,390L810,390"/></g><path d="M790,390L810,390" style="fill: none; stroke-opacity: 0; stroke: white; stroke-width: 15px;" class="djs-hit djs-hit-stroke"/><rect x="785" y="385" rx="4" width="30" height="10" style="fill: none;" class="djs-outline"/></g></g><g class="djs-group"><g class="djs-element djs-connection" data-element-id="Flow_0kozhwr" style="display: block;"><g class="djs-visual"><defs><marker id="marker-dfyysu8kmf5jfhxi1kk3g9jp3" viewBox="0 0 20 20" refX="11" refY="10" markerWidth="10" markerHeight="10" orient="auto"><path d="M 1 5 L 11 10 L 1 15 Z" style="stroke-linecap: round; stroke-linejoin: round; stroke: rgb(34, 36, 42); stroke-width: 1px; fill: rgb(34, 36, 42);"/></marker></defs><path style="fill: none; stroke-linecap: round; stroke-linejoin: round; stroke: rgb(34, 36, 42); stroke-width: 2px; marker-end: url('#marker-dfyysu8kmf5jfhxi1kk3g9jp3');" data-corner-radius="5" d="M910,390L930,390"/></g><path d="M910,390L930,390" style="fill: none; stroke-opacity: 0; stroke: white; stroke-width: 15px;" class="djs-hit djs-hit-stroke"/><rect x="905" y="385" rx="4" width="30" height="10" style="fill: none;" class="djs-outline"/></g></g><g class="djs-group"><g class="djs-element djs-connection" data-element-id="Flow_0nnxd81" style="display: block;"><g class="djs-visual"><defs><marker id="marker-avnlfshmgkidwvsl226hxch2r" viewBox="0 0 20 20" refX="11" refY="10" markerWidth="10" markerHeight="10" orient="auto"><path d="M 1 5 L 11 10 L 1 15 Z" style="stroke-linecap: round; stroke-linejoin: round; stroke: rgb(34, 36, 42); stroke-width: 1px; fill: rgb(34, 36, 42);"/></marker></defs><path style="fill: none; stroke-linecap: round; stroke-linejoin: round; stroke: rgb(34, 36, 42); stroke-width: 2px; marker-end: url('#marker-avnlfshmgkidwvsl226hxch2r');" data-corner-radius="5" d="M1030,390L1092,390"/></g><path d="M1030,390L1092,390" style="fill: none; stroke-opacity: 0; stroke: white; stroke-width: 15px;" class="djs-hit djs-hit-stroke"/><rect x="1025" y="385" rx="4" width="72" height="10" style="fill: none;" class="djs-outline"/></g></g><g class="djs-group"><g class="djs-element djs-connection" data-element-id="Flow_1qy0fno" style="display: block;"><g class="djs-visual"><defs><marker id="marker-8d7v05iouppgmzmw2mx9dnq1o" viewBox="0 0 20 20" refX="11" refY="10" markerWidth="10" markerHeight="10" orient="auto"><path d="M 1 5 L 11 10 L 1 15 Z" style="stroke-linecap: round; stroke-linejoin: round; stroke: rgb(34, 36, 42); stroke-width: 1px; fill: rgb(34, 36, 42);"/></marker></defs><path style="fill: none; stroke-linecap: round; stroke-linejoin: round; stroke: rgb(34, 36, 42); stroke-width: 2px; marker-end: url('#marker-8d7v05iouppgmzmw2mx9dnq1o');" data-corner-radius="5" d="M348,390L400,390"/></g><path d="M348,390L400,390" style="fill: none; stroke-opacity: 0; stroke: white; stroke-width: 15px;" class="djs-hit djs-hit-stroke"/><rect x="343" y="385" rx="4" width="62" height="10" style="fill: none;" class="djs-outline"/></g></g><g class="djs-group"><g class="djs-element djs-connection" data-element-id="Flow_1nrnll4" style="display: block;"><g class="djs-visual"><defs><marker id="marker-b9j3rirwq6ykh6nm7i1vp18uz" viewBox="0 0 20 20" refX="11" refY="10" markerWidth="10" markerHeight="10" orient="auto"><path d="M 1 5 L 11 10 L 1 15 Z" style="stroke-linecap: round; stroke-linejoin: round; stroke: rgb(34, 36, 42); stroke-width: 1px; fill: rgb(34, 36, 42);"/></marker></defs><path style="fill: none; stroke-linecap: round; stroke-linejoin: round; stroke: rgb(34, 36, 42); stroke-width: 2px; marker-end: url('#marker-b9j3rirwq6ykh6nm7i1vp18uz');" data-corner-radius="5" d="M500,390L540,390"/></g><path d="M500,390L540,390" style="fill: none; stroke-opacity: 0; stroke: white; stroke-width: 15px;" class="djs-hit djs-hit-stroke"/><rect x="495" y="385" rx="4" width="50" height="10" style="fill: none;" class="djs-outline"/></g></g><g class="djs-group"><g class="djs-element djs-connection" data-element-id="Flow_1lywfmp" style="display: block;"><g class="djs-visual"><defs><marker id="marker-1l72adhkvu9ww9szbn2naqkjz" viewBox="0 0 20 20" refX="11" refY="10" markerWidth="10" markerHeight="10" orient="auto"><path d="M 1 5 L 11 10 L 1 15 Z" style="stroke-linecap: round; stroke-linejoin: round; stroke: rgb(34, 36, 42); stroke-width: 1px; fill: rgb(34, 36, 42);"/></marker></defs><path style="fill: none; stroke-linecap: round; stroke-linejoin: round; stroke: rgb(34, 36, 42); stroke-width: 2px; marker-end: url('#marker-1l72adhkvu9ww9szbn2naqkjz');" data-corner-radius="5" d="M1128,390L1170,390"/></g><path d="M1128,390L1170,390" style="fill: none; stroke-opacity: 0; stroke: white; stroke-width: 15px;" class="djs-hit djs-hit-stroke"/><rect x="1123" y="385" rx="4" width="52" height="10" style="fill: none;" class="djs-outline"/></g></g><g class="djs-group"><g class="djs-element djs-connection" data-element-id="Flow_00acios" style="display: block;"><g class="djs-visual"><defs><marker id="marker-18mm5hwvo733p0vyqyblbso3t" viewBox="0 0 20 20" refX="11" refY="10" markerWidth="10" markerHeight="10" orient="auto"><path d="M 1 5 L 11 10 L 1 15 Z" style="stroke-linecap: round; stroke-linejoin: round; stroke: rgb(34, 36, 42); stroke-width: 1px; fill: rgb(34, 36, 42);"/></marker></defs><path style="fill: none; stroke-linecap: round; stroke-linejoin: round; stroke: rgb(34, 36, 42); stroke-width: 2px; marker-end: url('#marker-18mm5hwvo733p0vyqyblbso3t');" data-corner-radius="5" d="M1270,390L1332,390"/></g><path d="M1270,390L1332,390" style="fill: none; stroke-opacity: 0; stroke: white; stroke-width: 15px;" class="djs-hit djs-hit-stroke"/><rect x="1265" y="385" rx="4" width="72" height="10" style="fill: none;" class="djs-outline"/></g></g><g class="djs-group"><g class="djs-element djs-connection" data-element-id="Flow_0l1taeb" style="display: block;"><g class="djs-visual"><defs><marker id="marker-ernkpdyoh2di6o4ti2fxoh3mr" viewBox="0 0 20 20" refX="11" refY="10" markerWidth="10" markerHeight="10" orient="auto"><path d="M 1 5 L 11 10 L 1 15 Z" style="stroke-linecap: round; stroke-linejoin: round; stroke: rgb(34, 36, 42); stroke-width: 1px; fill: rgb(34, 36, 42);"/></marker></defs><path style="fill: none; stroke-linecap: round; stroke-linejoin: round; stroke: rgb(34, 36, 42); stroke-width: 2px; marker-end: url('#marker-ernkpdyoh2di6o4ti2fxoh3mr');" data-corner-radius="5" d="M640,390L690,390"/></g><path d="M640,390L690,390" style="fill: none; stroke-opacity: 0; stroke: white; stroke-width: 15px;" class="djs-hit djs-hit-stroke"/><rect x="635" y="385" rx="4" width="60" height="10" style="fill: none;" class="djs-outline"/></g></g><g class="djs-group"><g class="djs-element djs-connection" data-element-id="Association_1abjmmj" style="display: block;"><g class="djs-visual"><path style="fill: none; stroke-linecap: round; stroke-linejoin: round; stroke: rgb(34, 36, 42); stroke-width: 2px; stroke-dasharray: 0px, 5px;" data-corner-radius="5" d="M890,430L912,479"/></g><path d="M890,430L912,479" style="fill: none; stroke-opacity: 0; stroke: white; stroke-width: 15px;" class="djs-hit djs-hit-stroke"/><rect x="885" y="425" rx="4" width="32" height="59" style="fill: none;" class="djs-outline"/></g></g><g class="djs-group"><g class="djs-element djs-connection" data-element-id="Association_0fbn0uq" style="display: block;"><g class="djs-visual"><path style="fill: none; stroke-linecap: round; stroke-linejoin: round; stroke: rgb(34, 36, 42); stroke-width: 2px; stroke-dasharray: 0px, 5px;" data-corner-radius="5" d="M560,430L540,479"/></g><path d="M560,430L540,479" style="fill: none; stroke-opacity: 0; stroke: white; stroke-width: 15px;" class="djs-hit djs-hit-stroke"/><rect x="535" y="425" rx="4" width="30" height="59" style="fill: none;" class="djs-outline"/></g></g><g class="djs-group"><g class="djs-element djs-connection" data-element-id="Association_1mxuqd3" style="display: block;"><g class="djs-visual"><path style="fill: none; stroke-linecap: round; stroke-linejoin: round; stroke: rgb(34, 36, 42); stroke-width: 2px; stroke-dasharray: 0px, 5px;" data-corner-radius="5" d="M710,430L690,479"/></g><path d="M710,430L690,479" style="fill: none; stroke-opacity: 0; stroke: white; stroke-width: 15px;" class="djs-hit djs-hit-stroke"/><rect x="685" y="425" rx="4" width="30" height="59" style="fill: none;" class="djs-outline"/></g></g><g class="djs-group"><g class="djs-element djs-connection" data-element-id="Association_1pctzl9" style="display: block;"><g class="djs-visual"><path style="fill: none; stroke-linecap: round; stroke-linejoin: round; stroke: rgb(34, 36, 42); stroke-width: 2px; stroke-dasharray: 0px, 5px;" data-corner-radius="5" d="M1349,372L1370,309"/></g><path d="M1349,372L1370,309" style="fill: none; stroke-opacity: 0; stroke: white; stroke-width: 15px;" class="djs-hit djs-hit-stroke"/><rect x="1344" y="304" rx="4" width="31" height="73" style="fill: none;" class="djs-outline"/></g></g><g class="djs-group"><g class="djs-element djs-connection" data-element-id="Association_0yxrote" style="display: block;"><g class="djs-visual"><path style="fill: none; stroke-linecap: round; stroke-linejoin: round; stroke: rgb(34, 36, 42); stroke-width: 2px; stroke-dasharray: 0px, 5px;" data-corner-radius="5" d="M1342,406L1319,452"/></g><path d="M1342,406L1319,452" style="fill: none; stroke-opacity: 0; stroke: white; stroke-width: 15px;" class="djs-hit djs-hit-stroke"/><rect x="1314" y="401" rx="4" width="33" height="56" style="fill: none;" class="djs-outline"/></g></g><g class="djs-group"><g class="djs-element djs-connection" data-element-id="Association_0r978rr" style="display: block;"><g class="djs-visual"><path style="fill: none; stroke-linecap: round; stroke-linejoin: round; stroke: rgb(34, 36, 42); stroke-width: 2px; stroke-dasharray: 0px, 5px;" data-corner-radius="5" d="M1358,406L1381,452"/></g><path d="M1358,406L1381,452" style="fill: none; stroke-opacity: 0; stroke: white; stroke-width: 15px;" class="djs-hit djs-hit-stroke"/><rect x="1353" y="401" rx="4" width="33" height="56" style="fill: none;" class="djs-outline"/></g></g></g></g><g class="djs-group"><g class="djs-element djs-shape djs-frame" data-element-id="Group_0os8wk0" transform="matrix(1, 0, 0, 1, 665, 300)" style="display: block;"><g class="djs-visual"><rect x="0" y="0" width="390" height="150" rx="10" ry="10" style="stroke-linecap: round; stroke-linejoin: round; stroke: rgb(34, 36, 42); stroke-width: 1.5px; fill: none; stroke-dasharray: 10px, 6px, 0px, 6px; pointer-events: none;"/></g><rect style="fill: none; stroke-opacity: 0; stroke: white; stroke-width: 15px;" class="djs-hit djs-hit-stroke" x="0" y="0" width="390" height="150"/><rect x="-5" y="-5" rx="14" width="400" height="160" style="fill: none;" class="djs-outline"/></g></g><g class="djs-group"><g class="djs-element djs-shape" data-element-id="Group_0os8wk0_label" transform="matrix(1, 0, 0, 1, 832, 307)" style="display: block;"><g class="djs-visual"><text style="font-family: Arial, sans-serif; font-size: 11px; font-weight: normal; fill: rgb(34, 36, 42); fill-opacity: 0.95;" lineHeight="1.2" class="djs-label"><tspan x="0" y="9.899999999999999">Molekulare </tspan><tspan x="2.75" y="23.099999999999998">Diagnostik</tspan></text></g><rect style="fill: none; stroke-opacity: 0; stroke: white; stroke-width: 15px;" class="djs-hit djs-hit-all" x="0" y="0" width="57" height="27"/><rect x="-5" y="-5" rx="4" width="67" height="37" style="fill: none;" class="djs-outline"/></g></g><g class="djs-group"><g class="djs-element djs-shape" data-element-id="TextAnnotation_0nfd44x" transform="matrix(1, 0, 0, 1, 310, 170)" style="display: block;"><g class="djs-visual"><rect x="0" y="0" width="340" height="140" rx="0" ry="0" style="stroke-linecap: round; stroke-linejoin: round; stroke: none; stroke-width: 2px; fill: none;"/><path style="fill: none; stroke-linecap: round; stroke-linejoin: round; stroke: rgb(0, 0, 0); stroke-width: 2px;" d="m 0, 0 m 10,0 l -10,0 l 0,140 l 10,0"/><text style="font-family: Arial, sans-serif; font-size: 12px; font-weight: normal; fill: rgb(0, 0, 0);" lineHeight="1.2" class="djs-label"><tspan x="7" y="17.799999999999997">Vorstellung auf Grundlage der dokumentierten</tspan><tspan x="7" y="32.199999999999996">          Empfehlung einer tumorspezifischen oder organspezifisc</tspan><tspan x="7" y="46.599999999999994">hen Tumorkonferenz: Für Patienten</tspan><tspan x="7" y="60.99999999999999">          mit fortgeschrittener Krebserkrankung, die</tspan><tspan x="7" y="75.39999999999999">          - die leitlinienbasierte Therapie voraussichtlich ausschöpfen,</tspan><tspan x="7" y="89.79999999999998">          - anhand der klinischen Parameter für eine molekular ba</tspan><tspan x="7" y="104.19999999999999">sierte Therapie infrage kommen,</tspan><tspan x="7" y="118.6">          - grundsätzlich einer möglichen Therapie auf Basis der </tspan><tspan x="7" y="133">          molekularen Befunde zustimmen [LC SoS 1.2.4]</tspan></text></g><rect style="fill: none; stroke-opacity: 0; stroke: white; stroke-width: 15px;" class="djs-hit djs-hit-all" x="0" y="0" width="340" height="140"/><rect x="-5" y="-5" rx="4" width="350" height="150" style="fill: none;" class="djs-outline"/></g></g><g class="djs-group"><g class="djs-element djs-shape" data-element-id="TextAnnotation_186yiw3" transform="matrix(1, 0, 0, 1, 1280, 580)" style="display: block;"><g class="djs-visual"><rect x="0" y="0" width="140" height="125" rx="0" ry="0" style="stroke-linecap: round; stroke-linejoin: round; stroke: none; stroke-width: 2px; fill: none;"/><path style="fill: none; stroke-linecap: round; stroke-linejoin: round; stroke: rgb(0, 0, 0); stroke-width: 2px;" d="m 0, 0 m 10,0 l -10,0 l 0,125.00000000000001 l 10,0"/><text style="font-family: Arial, sans-serif; font-size: 12px; font-weight: normal; fill: rgb(0, 0, 0);" lineHeight="1.2" class="djs-label"><tspan x="7" y="17.799999999999997">Empfehlung erstellen </tspan><tspan x="7" y="32.199999999999996">inkl. der Ergebnisse</tspan><tspan x="7" y="46.599999999999994">aller genetischen </tspan><tspan x="7" y="60.99999999999999">Tests, die dem </tspan><tspan x="7" y="75.39999999999999">zuweisenden </tspan><tspan x="7" y="89.79999999999998">Leistungserbringer </tspan><tspan x="7" y="104.19999999999999">vorliegen [LC SoS </tspan><tspan x="7" y="118.6">1.2.4]</tspan></text></g><rect style="fill: none; stroke-opacity: 0; stroke: white; stroke-width: 15px;" class="djs-hit djs-hit-all" x="0" y="0" width="140" height="125"/><rect x="-5" y="-5" rx="4" width="150" height="135" style="fill: none;" class="djs-outline"/></g></g><g class="djs-group"><g class="djs-element djs-shape" data-element-id="TextAnnotation_0ckkl82" transform="matrix(1, 0, 0, 1, 1150, 160)" style="display: block;"><g class="djs-visual"><rect x="0" y="0" width="160" height="140" rx="0" ry="0" style="stroke-linecap: round; stroke-linejoin: round; stroke: none; stroke-width: 2px; fill: none;"/><path style="fill: none; stroke-linecap: round; stroke-linejoin: round; stroke: rgb(0, 0, 0); stroke-width: 2px;" d="m 0, 0 m 10,0 l -10,0 l 0,140 l 10,0"/><text style="font-family: Arial, sans-serif; font-size: 12px; font-weight: normal; fill: rgb(0, 0, 0);" lineHeight="1.2" class="djs-label"><tspan x="7" y="17.799999999999997">Teilnehmende: </tspan><tspan x="7" y="32.199999999999996">Bioinformatik,</tspan><tspan x="7" y="46.599999999999994">          Molekularbiologie,</tspan><tspan x="7" y="60.99999999999999">Pathologe, Humangenetik, </tspan><tspan x="7" y="75.39999999999999">Hämatologie-/Onkologie-</tspan><tspan x="7" y="89.79999999999998">Facharzt,</tspan><tspan x="7" y="104.19999999999999">          tumorspezifische Fach</tspan><tspan x="7" y="118.6">disziplinen </tspan><tspan x="7" y="133">(Tumorentitätsexperte)</tspan></text></g><rect style="fill: none; stroke-opacity: 0; stroke: white; stroke-width: 15px;" class="djs-hit djs-hit-all" x="0" y="0" width="160" height="140"/><rect x="-5" y="-5" rx="4" width="170" height="150" style="fill: none;" class="djs-outline"/></g></g><g class="djs-group"><g class="djs-element djs-connection" data-element-id="DataOutputAssociation_0nadoyo" style="display: block;"><g class="djs-visual"><defs><marker id="marker-8b5m4spsyupb8y2qi5fyjk1g2" viewBox="0 0 20 20" refX="11" refY="10" markerWidth="10" markerHeight="10" orient="auto"><path d="M 1 5 L 11 10 L 1 15" style="fill: none; stroke-linecap: round; stroke-linejoin: round; stroke: rgb(34, 36, 42); stroke-width: 1.5px; stroke-dasharray: 10000px, 1px;"/></marker></defs><path style="fill: none; stroke-linecap: round; stroke-linejoin: round; stroke: rgb(34, 36, 42); stroke-width: 2px; marker-end: url('#marker-8b5m4spsyupb8y2qi5fyjk1g2'); stroke-dasharray: 0px, 5px;" data-corner-radius="5" d="M1221,430L1222,530"/></g><path d="M1221,430L1222,530" style="fill: none; stroke-opacity: 0; stroke: white; stroke-width: 15px;" class="djs-hit djs-hit-stroke"/><rect x="1216" y="425" rx="4" width="11" height="110" style="fill: none;" class="djs-outline"/></g></g><g class="djs-group"><g class="djs-element djs-connection" data-element-id="Association_1qba4nr" style="display: block;"><g class="djs-visual"><path style="fill: none; stroke-linecap: round; stroke-linejoin: round; stroke: rgb(34, 36, 42); stroke-width: 2px; stroke-dasharray: 0px, 5px;" data-corner-radius="5" d="M329,372L317,310"/></g><path d="M329,372L317,310" style="fill: none; stroke-opacity: 0; stroke: white; stroke-width: 15px;" class="djs-hit djs-hit-stroke"/><rect x="312" y="305" rx="4" width="22" height="72" style="fill: none;" class="djs-outline"/></g></g><g class="djs-group"><g class="djs-element djs-connection" data-element-id="Association_12gwuou" style="display: block;"><g class="djs-visual"><path style="fill: none; stroke-linecap: round; stroke-linejoin: round; stroke: rgb(34, 36, 42); stroke-width: 2px; stroke-dasharray: 0px, 5px;" data-corner-radius="5" d="M1238,562L1288,580"/></g><path d="M1238,562L1288,580" style="fill: none; stroke-opacity: 0; stroke: white; stroke-width: 15px;" class="djs-hit djs-hit-stroke"/><rect x="1233" y="557" rx="4" width="60" height="28" style="fill: none;" class="djs-outline"/></g></g><g class="djs-group"><g class="djs-element djs-connection" data-element-id="Association_0uxqf6y" style="display: block;"><g class="djs-visual"><path style="fill: none; stroke-linecap: round; stroke-linejoin: round; stroke: rgb(34, 36, 42); stroke-width: 2px; stroke-dasharray: 0px, 5px;" data-corner-radius="5" d="M1220,350L1220,300"/></g><path d="M1220,350L1220,300" style="fill: none; stroke-opacity: 0; stroke: white; stroke-width: 15px;" class="djs-hit djs-hit-stroke"/><rect x="1215" y="295" rx="4" width="10" height="60" style="fill: none;" class="djs-outline"/></g></g></svg>