<?xml version="1.0" encoding="utf-8"?>
<!-- created with bpmn-js / http://bpmn.io -->
<!DOCTYPE svg PUBLIC "-//W3C//DTD SVG 1.1//EN" "http://www.w3.org/Graphics/SVG/1.1/DTD/svg11.dtd">
<svg xmlns="http://www.w3.org/2000/svg" xmlns:xlink="http://www.w3.org/1999/xlink" width="960" height="800" viewBox="245 55 960 800" version="1.1"><g class="djs-group"><g class="djs-element djs-shape" data-element-id="Participant_1qylwsq" transform="matrix(1, 0, 0, 1, 250, 60)" style="display: block;"><g class="djs-visual"><rect x="0" y="0" width="950" height="790" rx="0" ry="0" style="stroke-linecap: round; stroke-linejoin: round; stroke: rgb(34, 36, 42); stroke-width: 1.5px; fill: white; fill-opacity: 0.95;"/><path style="fill: none; stroke-linecap: round; stroke-linejoin: round; stroke: rgb(34, 36, 42); stroke-width: 1.5px;" d="M30,0L30,790"/><text style="font-family: Arial, sans-serif; font-size: 12px; font-weight: normal; fill: rgb(34, 36, 42);" lineHeight="1.2" class="djs-label" transform="matrix(-1.83697e-16, -1, 1, -1.83697e-16, 0, 790)"><tspan x="349.2249984741211" y="18.6">Tumorboard (TB)</tspan></text></g><rect x="-5" y="-5" rx="4" width="960" height="800" style="fill: none;" class="djs-outline"/><rect style="fill: none; stroke-opacity: 0; stroke: white; stroke-width: 15px;" class="djs-hit djs-hit-no-move" x="0" y="0" width="950" height="790"/><rect style="fill: none; stroke-opacity: 0; stroke: white; stroke-width: 15px;" class="djs-hit djs-hit-click-stroke" x="0" y="0" width="950" height="790"/><rect style="fill: none; stroke-opacity: 0; stroke: white; stroke-width: 15px;" class="djs-hit djs-hit-all" x="0" y="0" width="30" height="790"/></g><g class="djs-children"><g class="djs-group"><g class="djs-element djs-shape" data-element-id="StartEvent_1" transform="matrix(1, 0, 0, 1, 322, 332)" style="display: block;"><g class="djs-visual"><circle cx="18" cy="18" r="18" style="stroke-linecap: round; stroke-linejoin: round; stroke: rgb(34, 36, 42); stroke-width: 2px; fill: white; fill-opacity: 0.95;"/></g><rect style="fill: none; stroke-opacity: 0; stroke: white; stroke-width: 15px;" class="djs-hit djs-hit-all" x="0" y="0" width="36" height="36"/><circle cx="18" cy="18" r="23" style="fill: none;" class="djs-outline"/></g></g><g class="djs-group"><g class="djs-element djs-shape" data-element-id="StartEvent_1_label" transform="matrix(1, 0, 0, 1, 301, 375)" style="display: block;"><g class="djs-visual"><text style="font-family: Arial, sans-serif; font-size: 11px; font-weight: normal; fill: rgb(34, 36, 42); fill-opacity: 0.95;" lineHeight="1.2" class="djs-label"><tspan x="2.4416656494140625" y="9.899999999999999">Therapeutische </tspan><tspan x="29.266666412353516" y="23.099999999999998">oder </tspan><tspan x="8.24166488647461" y="36.3">diagnostische</tspan><tspan x="8.549999237060547" y="49.5">          Fragestellung</tspan><tspan x="0" y="62.7">für den Patienten</tspan></text></g><rect style="fill: none; stroke-opacity: 0; stroke: white; stroke-width: 15px;" class="djs-hit djs-hit-all" x="0" y="0" width="84" height="66"/><rect x="-5" y="-5" rx="4" width="94" height="76" style="fill: none;" class="djs-outline"/></g></g><g class="djs-group"><g class="djs-element djs-shape" data-element-id="Activity_1azhtk5" transform="matrix(1, 0, 0, 1, 400, 310)" style="display: block;"><g class="djs-visual"><rect x="0" y="0" width="100" height="80" rx="10" ry="10" style="stroke-linecap: round; stroke-linejoin: round; stroke: rgb(34, 36, 42); stroke-width: 2px; fill: white; fill-opacity: 0.95;"/><text style="font-family: Arial, sans-serif; font-size: 12px; font-weight: normal; fill: rgb(34, 36, 42); fill-opacity: 0.95;" lineHeight="1.2" class="djs-label"><tspan x="8.358334302902222" y="22">Anmeldung des</tspan><tspan x="14.25" y="36.4">Patienten für </tspan><tspan x="38.666666984558105" y="50.8">das </tspan><tspan x="17.558334350585938" y="65.19999999999999">Tumorboard</tspan></text></g><rect style="fill: none; stroke-opacity: 0; stroke: white; stroke-width: 15px;" class="djs-hit djs-hit-all" x="0" y="0" width="100" height="80"/><rect x="-5" y="-5" rx="14" width="110" height="90" style="fill: none;" class="djs-outline"/></g></g><g class="djs-group"><g class="djs-element djs-shape" data-element-id="Activity_1e4jmjc" transform="matrix(1, 0, 0, 1, 840, 310)" style="display: block;"><g class="djs-visual"><rect x="0" y="0" width="100" height="80" rx="10" ry="10" style="stroke-linecap: round; stroke-linejoin: round; stroke: rgb(255, 146, 0); stroke-width: 2px; fill: white; fill-opacity: 0.95;"/><text style="font-family: Arial, sans-serif; font-size: 12px; font-weight: normal; fill: rgb(255, 146, 0); fill-opacity: 0.95;" lineHeight="1.2" class="djs-label"><tspan x="12.325000762939453" y="22">Vorstellung im</tspan><tspan x="15.891666412353516" y="36.4">Tumorboard </tspan><tspan x="8.333332061767578" y="50.8">(Behandlungspl</tspan><tspan x="41.333333015441895" y="65.19999999999999">an)</tspan></text></g><rect style="fill: none; stroke-opacity: 0; stroke: white; stroke-width: 15px;" class="djs-hit djs-hit-all" x="0" y="0" width="100" height="80"/><rect x="-5" y="-5" rx="14" width="110" height="90" style="fill: none;" class="djs-outline"/></g></g><g class="djs-group"><g class="djs-element djs-shape" data-element-id="DataObjectReference_1mlu0z0" transform="matrix(1, 0, 0, 1, 412, 225)" style="display: block;"><g class="djs-visual"><path style="fill: white; stroke-linecap: round; stroke-linejoin: round; stroke: rgb(34, 36, 42); stroke-width: 2px; fill-opacity: 0.95;" d="m 0,0 28.23529411764706,0 7.058823529411765,8.196721311475411 0,40.98360655737705 -35.294117647058826,0 0,-49.18032786885246 28.23529411764706,0 0,8.196721311475411 7.058823529411765,0"/><path style="fill: white; stroke-linecap: round; stroke-linejoin: round; stroke: rgb(34, 36, 42); stroke-width: 2px;" d="m11.88,32 m 3,2 l 0,10 m 3,-10 l 0,10 m 3,-10 l 0,10"/></g><rect style="fill: none; stroke-opacity: 0; stroke: white; stroke-width: 15px;" class="djs-hit djs-hit-all" x="0" y="0" width="36" height="50"/><path d="M44.7648 11.3263L36.9892 2.64074C36.0451 1.58628 34.5651 0.988708 33.1904 0.988708H5.98667C3.22688 0.988708 0.989624 3.34892 0.989624 6.26039V55.0235C0.989624 57.9349 3.22688 60.2952 5.98667 60.2952H40.966C43.7257 60.2952 45.963 57.9349 45.963 55.0235V14.9459C45.963 13.5998 45.6407 12.3048 44.7648 11.3263Z" style="stroke-width: 2px; fill: none;" transform="translate(-6, -6)" class="djs-outline"/></g></g><g class="djs-group"><g class="djs-element djs-shape" data-element-id="DataObjectReference_1mlu0z0_label" transform="matrix(1, 0, 0, 1, 391, 180)" style="display: block;"><g class="djs-visual"><text style="font-family: Arial, sans-serif; font-size: 11px; font-weight: normal; fill: rgb(34, 36, 42); fill-opacity: 0.95;" lineHeight="1.2" class="djs-label"><tspan x="14.374998092651367" y="9.899999999999999">Patienten-</tspan><tspan x="28.741665840148926" y="23.099999999999998">und </tspan><tspan x="0" y="36.3">Diagnostikdaten</tspan></text></g><rect style="fill: none; stroke-opacity: 0; stroke: white; stroke-width: 15px;" class="djs-hit djs-hit-all" x="0" y="0" width="79" height="40"/><rect x="-5" y="-5" rx="4" width="89" height="50" style="fill: none;" class="djs-outline"/></g></g><g class="djs-group"><g class="djs-element djs-shape" data-element-id="Event_1gjnvno" transform="matrix(1, 0, 0, 1, 1032, 332)" style="display: block;"><g class="djs-visual"><circle cx="18" cy="18" r="18" style="stroke-linecap: round; stroke-linejoin: round; stroke: rgb(34, 36, 42); stroke-width: 4px; fill: white; fill-opacity: 0.95;"/></g><rect style="fill: none; stroke-opacity: 0; stroke: white; stroke-width: 15px;" class="djs-hit djs-hit-all" x="0" y="0" width="36" height="36"/><circle cx="18" cy="18" r="24" style="fill: none;" class="djs-outline"/></g></g><g class="djs-group"><g class="djs-element djs-shape" data-element-id="Event_1gjnvno_label" transform="matrix(1, 0, 0, 1, 1018, 375)" style="display: block;"><g class="djs-visual"><text style="font-family: Arial, sans-serif; font-size: 11px; font-weight: normal; fill: rgb(34, 36, 42); fill-opacity: 0.95;" lineHeight="1.2" class="djs-label"><tspan x="7.750001907348633" y="9.899999999999999">Ende des </tspan><tspan x="0" y="23.099999999999998">Tumorboards</tspan></text></g><rect style="fill: none; stroke-opacity: 0; stroke: white; stroke-width: 15px;" class="djs-hit djs-hit-all" x="0" y="0" width="66" height="27"/><rect x="-5" y="-5" rx="4" width="76" height="37" style="fill: none;" class="djs-outline"/></g></g><g class="djs-group"><g class="djs-element djs-shape" data-element-id="Activity_1phtl9y" transform="matrix(1, 0, 0, 1, 620, 310)" style="display: block;"><g class="djs-visual"><rect x="0" y="0" width="100" height="80" rx="10" ry="10" style="stroke-linecap: round; stroke-linejoin: round; stroke: rgb(255, 146, 0); stroke-width: 2px; fill: white; fill-opacity: 0.95;"/><text style="font-family: Arial, sans-serif; font-size: 12px; font-weight: normal; fill: rgb(255, 146, 0); fill-opacity: 0.95;" lineHeight="1.2" class="djs-label"><tspan x="14.325000762939453" y="14.799999999999999">Vorbereitung </tspan><tspan x="38.666666984558105" y="29.199999999999996">des </tspan><tspan x="14.558334350585938" y="43.599999999999994">Tumorboards</tspan><tspan x="11" y="57.99999999999999">          [LC SoS 1.2.3.</tspan><tspan x="44" y="72.39999999999999">C]</tspan></text></g><rect style="fill: none; stroke-opacity: 0; stroke: white; stroke-width: 15px;" class="djs-hit djs-hit-all" x="0" y="0" width="100" height="80"/><rect x="-5" y="-5" rx="14" width="110" height="90" style="fill: none;" class="djs-outline"/></g></g><g class="djs-group"><g class="djs-element djs-shape" data-element-id="QualityIndicator_031h1lz" transform="matrix(1, 0, 0, 1, 1102, 372)" style="display: block;"><g class="djs-visual"><circle cx="18" cy="18" r="18" style="stroke-linecap: round; stroke-linejoin: round; stroke: rgb(34, 36, 42); stroke-width: 2px; fill: rgb(220, 208, 226); fill-opacity: 0.95; stroke-opacity: 0.95;"/><path style="fill: rgb(34, 36, 42); stroke-linecap: round; stroke-linejoin: round; stroke: none; stroke-width: 2px; fill-opacity: 0.95; stroke-opacity: 0.95;" d="m 0,0 m 19.699,12.899 c -1.079,-1.183 -2.637,-1.774 -4.672,-1.774 c -2.038,0 -3.602,0.588 -4.695,1.76 c -1.09,1.172 -1.633,2.87 -1.633,5.094 c 0,2.224 0.543,3.929 1.633,5.119 c 1.086,1.186 2.647,1.777 4.678,1.777 c 0,0 0.21,0 0.21,0 c 0,0 2.427,3.094 2.427,3.094 c 0,0 3.599,0 3.599,0 c 0,0 -3.19,-3.689 -3.19,-3.689 c 1.069,-0.495 1.88,-1.272 2.434,-2.334 c 0.553,-1.062 0.831,-2.378 0.831,-3.953 c 0,-2.214 -0.539,-3.915 -1.622,-5.094 zm -7.209,1.705 c 0.571,-0.76 1.417,-1.142 2.537,-1.142 c 2.231,0 3.345,1.513 3.345,4.531 c 0,3.018 -1.121,4.524 -3.369,4.524 c -1.117,0 -1.956,-0.378 -2.516,-1.138 c -0.564,-0.76 -0.846,-1.887 -0.846,-3.386 c 0,-1.499 0.282,-2.626 0.849,-3.389 zm 14.4,9.927 c 0,0 0,-13.406 0,-13.406 c 0,0 -2.808,0 -2.808,0 c 0,0 0,13.406 0,13.406 c 0,0 2.808,0 2.808,0 z"/></g><rect style="fill: none; stroke-opacity: 0; stroke: white; stroke-width: 15px;" class="djs-hit djs-hit-all" x="0" y="0" width="36" height="36"/><circle cx="18" cy="18" r="23" style="fill: none;" class="djs-outline"/></g></g><g class="djs-group"><g class="djs-element djs-shape" data-element-id="QualityIndicator_031h1lz_label" transform="matrix(1, 0, 0, 1, 1080, 415)" style="display: block;"><g class="djs-visual"><text style="font-family: Arial, sans-serif; font-size: 11px; font-weight: normal; fill: rgb(34, 36, 42); fill-opacity: 0.95;" lineHeight="1.2" class="djs-label"><tspan x="31.17499828338623" y="9.899999999999999">#18</tspan><tspan x="12.841665267944336" y="23.099999999999998">          Zugang zu </tspan><tspan x="14.666666030883789" y="36.3">klinischen </tspan><tspan x="9.474998474121094" y="49.5">Studien und </tspan><tspan x="0" y="62.7">Forschungsstudi</tspan><tspan x="34.23333168029785" y="75.9">en</tspan></text></g><rect style="fill: none; stroke-opacity: 0; stroke: white; stroke-width: 15px;" class="djs-hit djs-hit-all" x="0" y="0" width="81" height="80"/><rect x="-5" y="-5" rx="4" width="91" height="90" style="fill: none;" class="djs-outline"/></g></g><g class="djs-group"><g class="djs-element djs-shape" data-element-id="QualityIndicator_0o1cc2x" transform="matrix(1, 0, 0, 1, 1102, 272)" style="display: block;"><g class="djs-visual"><circle cx="18" cy="18" r="18" style="stroke-linecap: round; stroke-linejoin: round; stroke: rgb(34, 36, 42); stroke-width: 2px; fill: rgb(222, 206, 226); fill-opacity: 0.95; stroke-opacity: 0.95;"/><path style="fill: rgb(34, 36, 42); stroke-linecap: round; stroke-linejoin: round; stroke: none; stroke-width: 2px; fill-opacity: 0.95; stroke-opacity: 0.95;" d="m 0,0 m 19.699,12.899 c -1.079,-1.183 -2.637,-1.774 -4.672,-1.774 c -2.038,0 -3.602,0.588 -4.695,1.76 c -1.09,1.172 -1.633,2.87 -1.633,5.094 c 0,2.224 0.543,3.929 1.633,5.119 c 1.086,1.186 2.647,1.777 4.678,1.777 c 0,0 0.21,0 0.21,0 c 0,0 2.427,3.094 2.427,3.094 c 0,0 3.599,0 3.599,0 c 0,0 -3.19,-3.689 -3.19,-3.689 c 1.069,-0.495 1.88,-1.272 2.434,-2.334 c 0.553,-1.062 0.831,-2.378 0.831,-3.953 c 0,-2.214 -0.539,-3.915 -1.622,-5.094 zm -7.209,1.705 c 0.571,-0.76 1.417,-1.142 2.537,-1.142 c 2.231,0 3.345,1.513 3.345,4.531 c 0,3.018 -1.121,4.524 -3.369,4.524 c -1.117,0 -1.956,-0.378 -2.516,-1.138 c -0.564,-0.76 -0.846,-1.887 -0.846,-3.386 c 0,-1.499 0.282,-2.626 0.849,-3.389 zm 14.4,9.927 c 0,0 0,-13.406 0,-13.406 c 0,0 -2.808,0 -2.808,0 c 0,0 0,13.406 0,13.406 c 0,0 2.808,0 2.808,0 z"/></g><rect style="fill: none; stroke-opacity: 0; stroke: white; stroke-width: 15px;" class="djs-hit djs-hit-all" x="0" y="0" width="36" height="36"/><circle cx="18" cy="18" r="23" style="fill: none;" class="djs-outline"/></g></g><g class="djs-group"><g class="djs-element djs-shape" data-element-id="QualityIndicator_0o1cc2x_label" transform="matrix(1, 0, 0, 1, 1080, 315)" style="display: block;"><g class="djs-visual"><text style="font-family: Arial, sans-serif; font-size: 11px; font-weight: normal; fill: rgb(34, 36, 42); fill-opacity: 0.95;" lineHeight="1.2" class="djs-label"><tspan x="33.32500076293945" y="9.899999999999999">#2 </tspan><tspan x="0" y="23.099999999999998">prätherapeutisch</tspan><tspan x="11.641666412353516" y="36.3">es TB/MTB-</tspan><tspan x="21.399999618530273" y="49.5">Meeting</tspan></text></g><rect style="fill: none; stroke-opacity: 0; stroke: white; stroke-width: 15px;" class="djs-hit djs-hit-all" x="0" y="0" width="82" height="53"/><rect x="-5" y="-5" rx="4" width="92" height="63" style="fill: none;" class="djs-outline"/></g></g><g class="djs-group"><g class="djs-element djs-shape" data-element-id="DataObjectReference_1h9sxia" transform="matrix(1, 0, 0, 1, 872, 425)" style="display: block;"><g class="djs-visual"><path style="fill: white; stroke-linecap: round; stroke-linejoin: round; stroke: rgb(0, 0, 0); stroke-width: 2px; fill-opacity: 0.95;" d="m 0,0 28.23529411764706,0 7.058823529411765,8.196721311475411 0,40.98360655737705 -35.294117647058826,0 0,-49.18032786885246 28.23529411764706,0 0,8.196721311475411 7.058823529411765,0"/><path style="fill: white; stroke-linecap: round; stroke-linejoin: round; stroke: rgb(0, 0, 0); stroke-width: 2px;" d="m11.88,32 m 3,2 l 0,10 m 3,-10 l 0,10 m 3,-10 l 0,10"/></g><rect style="fill: none; stroke-opacity: 0; stroke: white; stroke-width: 15px;" class="djs-hit djs-hit-all" x="0" y="0" width="36" height="50"/><path d="M44.7648 11.3263L36.9892 2.64074C36.0451 1.58628 34.5651 0.988708 33.1904 0.988708H5.98667C3.22688 0.988708 0.989624 3.34892 0.989624 6.26039V55.0235C0.989624 57.9349 3.22688 60.2952 5.98667 60.2952H40.966C43.7257 60.2952 45.963 57.9349 45.963 55.0235V14.9459C45.963 13.5998 45.6407 12.3048 44.7648 11.3263Z" style="stroke-width: 2px; fill: none;" transform="translate(-6, -6)" class="djs-outline"/></g></g><g class="djs-group"><g class="djs-element djs-shape" data-element-id="DataObjectReference_1h9sxia_label" transform="matrix(1, 0, 0, 1, 850, 482)" style="display: block;"><g class="djs-visual"><text style="font-family: Arial, sans-serif; font-size: 11px; font-weight: normal; fill: rgb(0, 0, 0); fill-opacity: 0.95;" lineHeight="1.2" class="djs-label"><tspan x="11.216667175292969" y="9.899999999999999">Tumorboard-</tspan><tspan x="8.575000762939453" y="23.099999999999998">Protokoll inkl. </tspan><tspan x="0" y="36.3">interdisziplinärem</tspan><tspan x="13.450000762939453" y="49.5">          Behandlung</tspan><tspan x="6.133335113525391" y="62.7">splan [LC SoS </tspan><tspan x="15.625001907348633" y="75.9">1.2.3.F/H], </tspan><tspan x="6.116668701171875" y="89.10000000000001">Teilnehmerliste</tspan><tspan x="1.866668701171875" y="102.30000000000001">          [LC SoS 1.2.3.B]</tspan></text></g><rect style="fill: none; stroke-opacity: 0; stroke: white; stroke-width: 15px;" class="djs-hit djs-hit-all" x="0" y="0" width="86" height="106"/><rect x="-5" y="-5" rx="4" width="96" height="116" style="fill: none;" class="djs-outline"/></g></g><g class="djs-group"><g class="djs-element djs-shape" data-element-id="Activity_0yme8s3" transform="matrix(1, 0, 0, 1, 840, 700)" style="display: block;"><g class="djs-visual"><rect x="0" y="0" width="100" height="80" rx="10" ry="10" style="stroke-linecap: round; stroke-linejoin: round; stroke: rgb(255, 146, 0); stroke-width: 2px; fill: white; fill-opacity: 0.95;"/><text style="font-family: Arial, sans-serif; font-size: 12px; font-weight: normal; fill: rgb(255, 146, 0); fill-opacity: 0.95;" lineHeight="1.2" class="djs-label"><tspan x="13.666667938232422" y="43.599999999999994">Durchführung</tspan></text></g><rect style="fill: none; stroke-opacity: 0; stroke: white; stroke-width: 15px;" class="djs-hit djs-hit-all" x="0" y="0" width="100" height="80"/><rect x="-5" y="-5" rx="14" width="110" height="90" style="fill: none;" class="djs-outline"/></g></g><g class="djs-group"><g class="djs-element djs-shape" data-element-id="Activity_0k6eg9w" transform="matrix(1, 0, 0, 1, 950, 700)" style="display: block;"><g class="djs-visual"><rect x="0" y="0" width="100" height="80" rx="10" ry="10" style="stroke-linecap: round; stroke-linejoin: round; stroke: rgb(255, 146, 0); stroke-width: 2px; fill: white; fill-opacity: 0.95;"/><text style="font-family: Arial, sans-serif; font-size: 12px; font-weight: normal; fill: rgb(255, 146, 0); fill-opacity: 0.95;" lineHeight="1.2" class="djs-label"><tspan x="8.333332061767578" y="29.200000000000003">Beschlussfassu</tspan><tspan x="30" y="43.6">ng und </tspan><tspan x="10" y="58">Protokollierung</tspan></text></g><rect style="fill: none; stroke-opacity: 0; stroke: white; stroke-width: 15px;" class="djs-hit djs-hit-all" x="0" y="0" width="100" height="80"/><rect x="-5" y="-5" rx="14" width="110" height="90" style="fill: none;" class="djs-outline"/></g></g><g class="djs-group"><g class="djs-element djs-shape" data-element-id="Activity_1gux0yr" transform="matrix(1, 0, 0, 1, 450, 700)" style="display: block;"><g class="djs-visual"><rect x="0" y="0" width="100" height="80" rx="10" ry="10" style="stroke-linecap: round; stroke-linejoin: round; stroke: rgb(255, 146, 0); stroke-width: 2px; fill: white; fill-opacity: 0.95;"/><text style="font-family: Arial, sans-serif; font-size: 12px; font-weight: normal; fill: rgb(255, 146, 0); fill-opacity: 0.95;" lineHeight="1.2" class="djs-label"><tspan x="13.024998426437378" y="29.200000000000003">Angemeldete </tspan><tspan x="8.333332061767578" y="43.6">Patienten/ Fälle</tspan><tspan x="31" y="58">sichten</tspan></text></g><rect style="fill: none; stroke-opacity: 0; stroke: white; stroke-width: 15px;" class="djs-hit djs-hit-all" x="0" y="0" width="100" height="80"/><rect x="-5" y="-5" rx="14" width="110" height="90" style="fill: none;" class="djs-outline"/></g></g><g class="djs-group"><g class="djs-element djs-shape" data-element-id="Activity_09vqotg" transform="matrix(1, 0, 0, 1, 560, 700)" style="display: block;"><g class="djs-visual"><rect x="0" y="0" width="100" height="80" rx="10" ry="10" style="stroke-linecap: round; stroke-linejoin: round; stroke: rgb(255, 146, 0); stroke-width: 2px; fill: white; fill-opacity: 0.95;"/><text style="font-family: Arial, sans-serif; font-size: 12px; font-weight: normal; fill: rgb(255, 146, 0); fill-opacity: 0.95;" lineHeight="1.2" class="djs-label"><tspan x="15.358333587646484" y="36.4">PACS Bilder </tspan><tspan x="27.66666603088379" y="50.8">einlesen</tspan></text></g><rect style="fill: none; stroke-opacity: 0; stroke: white; stroke-width: 15px;" class="djs-hit djs-hit-all" x="0" y="0" width="100" height="80"/><rect x="-5" y="-5" rx="14" width="110" height="90" style="fill: none;" class="djs-outline"/></g></g><g class="djs-group"><g class="djs-element djs-shape" data-element-id="Activity_07zzmzl" transform="matrix(1, 0, 0, 1, 670, 700)" style="display: block;"><g class="djs-visual"><rect x="0" y="0" width="100" height="80" rx="10" ry="10" style="stroke-linecap: round; stroke-linejoin: round; stroke: rgb(255, 146, 0); stroke-width: 2px; fill: white; fill-opacity: 0.95;"/><text style="font-family: Arial, sans-serif; font-size: 12px; font-weight: normal; fill: rgb(255, 146, 0); fill-opacity: 0.95;" lineHeight="1.2" class="djs-label"><tspan x="9" y="36.4">Fachabteilunge</tspan><tspan x="22.33333396911621" y="50.8">n einladen</tspan></text></g><rect style="fill: none; stroke-opacity: 0; stroke: white; stroke-width: 15px;" class="djs-hit djs-hit-all" x="0" y="0" width="100" height="80"/><rect x="-5" y="-5" rx="14" width="110" height="90" style="fill: none;" class="djs-outline"/></g></g><g class="djs-group"><g class="djs-element djs-connection" data-element-id="Flow_1qy0fno" style="display: block;"><g class="djs-visual"><defs><marker id="marker-cirboo21vg0jhkrh4lwuykmq4" viewBox="0 0 20 20" refX="11" refY="10" markerWidth="10" markerHeight="10" orient="auto"><path d="M 1 5 L 11 10 L 1 15 Z" style="stroke-linecap: round; stroke-linejoin: round; stroke: rgb(34, 36, 42); stroke-width: 1px; fill: rgb(34, 36, 42);"/></marker></defs><path style="fill: none; stroke-linecap: round; stroke-linejoin: round; stroke: rgb(34, 36, 42); stroke-width: 2px; marker-end: url('#marker-cirboo21vg0jhkrh4lwuykmq4');" data-corner-radius="5" d="M358,350L400,350"/></g><path d="M358,350L400,350" style="fill: none; stroke-opacity: 0; stroke: white; stroke-width: 15px;" class="djs-hit djs-hit-stroke"/><rect x="353" y="345" rx="4" width="52" height="10" style="fill: none;" class="djs-outline"/></g></g><g class="djs-group"><g class="djs-element djs-connection" data-element-id="Flow_0bepz2w" style="display: block;"><g class="djs-visual"><defs><marker id="marker-cr5p1tp79modvz0b9d5lxm31c" viewBox="0 0 20 20" refX="11" refY="10" markerWidth="10" markerHeight="10" orient="auto"><path d="M 1 5 L 11 10 L 1 15 Z" style="stroke-linecap: round; stroke-linejoin: round; stroke: rgb(34, 36, 42); stroke-width: 1px; fill: rgb(34, 36, 42);"/></marker></defs><path style="fill: none; stroke-linecap: round; stroke-linejoin: round; stroke: rgb(34, 36, 42); stroke-width: 2px; marker-end: url('#marker-cr5p1tp79modvz0b9d5lxm31c');" data-corner-radius="5" d="M500,350L620,350"/></g><path d="M500,350L620,350" style="fill: none; stroke-opacity: 0; stroke: white; stroke-width: 15px;" class="djs-hit djs-hit-stroke"/><rect x="495" y="345" rx="4" width="130" height="10" style="fill: none;" class="djs-outline"/></g></g><g class="djs-group"><g class="djs-element djs-connection" data-element-id="Flow_00acios" style="display: block;"><g class="djs-visual"><defs><marker id="marker-e15hhsae7gnx35yx95ojp8q75" viewBox="0 0 20 20" refX="11" refY="10" markerWidth="10" markerHeight="10" orient="auto"><path d="M 1 5 L 11 10 L 1 15 Z" style="stroke-linecap: round; stroke-linejoin: round; stroke: rgb(34, 36, 42); stroke-width: 1px; fill: rgb(34, 36, 42);"/></marker></defs><path style="fill: none; stroke-linecap: round; stroke-linejoin: round; stroke: rgb(34, 36, 42); stroke-width: 2px; marker-end: url('#marker-e15hhsae7gnx35yx95ojp8q75');" data-corner-radius="5" d="M720,350L840,350"/></g><path d="M720,350L840,350" style="fill: none; stroke-opacity: 0; stroke: white; stroke-width: 15px;" class="djs-hit djs-hit-stroke"/><rect x="715" y="345" rx="4" width="130" height="10" style="fill: none;" class="djs-outline"/></g></g><g class="djs-group"><g class="djs-element djs-connection" data-element-id="Flow_1rfnrph" style="display: block;"><g class="djs-visual"><defs><marker id="marker-cu6vtn4j36keb1p1991vbz2qo" viewBox="0 0 20 20" refX="11" refY="10" markerWidth="10" markerHeight="10" orient="auto"><path d="M 1 5 L 11 10 L 1 15 Z" style="stroke-linecap: round; stroke-linejoin: round; stroke: rgb(34, 36, 42); stroke-width: 1px; fill: rgb(34, 36, 42);"/></marker></defs><path style="fill: none; stroke-linecap: round; stroke-linejoin: round; stroke: rgb(34, 36, 42); stroke-width: 2px; marker-end: url('#marker-cu6vtn4j36keb1p1991vbz2qo');" data-corner-radius="5" d="M940,350L1032,350"/></g><path d="M940,350L1032,350" style="fill: none; stroke-opacity: 0; stroke: white; stroke-width: 15px;" class="djs-hit djs-hit-stroke"/><rect x="935" y="345" rx="4" width="102" height="10" style="fill: none;" class="djs-outline"/></g></g><g class="djs-group"><g class="djs-element djs-connection" data-element-id="Association_0l6qj0j" style="display: block;"><g class="djs-visual"><path style="fill: none; stroke-linecap: round; stroke-linejoin: round; stroke: rgb(34, 36, 42); stroke-width: 2px; stroke-dasharray: 0px, 5px;" data-corner-radius="5" d="M1066,359L1102,380"/></g><path d="M1066,359L1102,380" style="fill: none; stroke-opacity: 0; stroke: white; stroke-width: 15px;" class="djs-hit djs-hit-stroke"/><rect x="1061" y="354" rx="4" width="46" height="31" style="fill: none;" class="djs-outline"/></g></g><g class="djs-group"><g class="djs-element djs-connection" data-element-id="Association_03umb1u" style="display: block;"><g class="djs-visual"><path style="fill: none; stroke-linecap: round; stroke-linejoin: round; stroke: rgb(34, 36, 42); stroke-width: 2px; stroke-dasharray: 0px, 5px;" data-corner-radius="5" d="M1064,338L1102,305"/></g><path d="M1064,338L1102,305" style="fill: none; stroke-opacity: 0; stroke: white; stroke-width: 15px;" class="djs-hit djs-hit-stroke"/><rect x="1059" y="300" rx="4" width="48" height="43" style="fill: none;" class="djs-outline"/></g></g></g></g><g class="djs-group"><g class="djs-element djs-shape" data-element-id="TextAnnotation_02vldql" transform="matrix(1, 0, 0, 1, 595, 430)" style="display: block;"><g class="djs-visual"><rect x="0" y="0" width="150" height="226" rx="0" ry="0" style="stroke-linecap: round; stroke-linejoin: round; stroke: none; stroke-width: 2px; fill: none;"/><path style="fill: none; stroke-linecap: round; stroke-linejoin: round; stroke: rgb(0, 0, 0); stroke-width: 2px;" d="m 0, 0 m 10,0 l -10,0 l 0,226 l 10,0"/><text style="font-family: Arial, sans-serif; font-size: 12px; font-weight: normal; fill: rgb(0, 0, 0);" lineHeight="1.2" class="djs-label"><tspan x="7" y="17.799999999999997">Teilnehmende sind alle </tspan><tspan x="7" y="32.199999999999996">wesentlichen</tspan><tspan x="7" y="46.599999999999994">          Kooperationspart</tspan><tspan x="7" y="60.99999999999999">ner des LC CCCN: </tspan><tspan x="7" y="75.39999999999999">Pneumologie, </tspan><tspan x="7" y="89.79999999999998">Thoraxchirurgie, </tspan><tspan x="7" y="104.19999999999999">medizinische Onkologie,</tspan><tspan x="7" y="118.6">          Strahlentherapie,</tspan><tspan x="7" y="133">Pathologie, Radiologie, </tspan><tspan x="7" y="147.4">Nuklearmedizin; weitere </tspan><tspan x="7" y="161.8">Partner und</tspan><tspan x="7" y="176.20000000000002">          Fachrichtungen we</tspan><tspan x="7" y="190.60000000000002">rden bei Bedarf </tspan><tspan x="7" y="205.00000000000003">einbezogen [LC SoS </tspan><tspan x="7" y="219.40000000000003">1.2.3.B]</tspan></text></g><rect style="fill: none; stroke-opacity: 0; stroke: white; stroke-width: 15px;" class="djs-hit djs-hit-all" x="0" y="0" width="150" height="226"/><rect x="-5" y="-5" rx="4" width="160" height="236" style="fill: none;" class="djs-outline"/></g></g><g class="djs-group"><g class="djs-element djs-shape" data-element-id="TextAnnotation_1er2nm3" transform="matrix(1, 0, 0, 1, 685, 80)" style="display: block;"><g class="djs-visual"><rect x="0" y="0" width="200" height="212" rx="0" ry="0" style="stroke-linecap: round; stroke-linejoin: round; stroke: none; stroke-width: 2px; fill: none;"/><path style="fill: none; stroke-linecap: round; stroke-linejoin: round; stroke: rgb(0, 0, 0); stroke-width: 2px;" d="m 0, 0 m 10,0 l -10,0 l 0,212 l 10,0"/><text style="font-family: Arial, sans-serif; font-size: 12px; font-weight: normal; fill: rgb(0, 0, 0);" lineHeight="1.2" class="djs-label"><tspan x="7" y="17.799999999999997">wesentliche Patienten-</tspan><tspan x="7" y="32.199999999999996">und Behandlungsdaten</tspan><tspan x="7" y="46.599999999999994">          sind schriftlich zusammenz</tspan><tspan x="7" y="60.99999999999999">ustellen und den TB-</tspan><tspan x="7" y="75.39999999999999">Teilnehmenden zur Verfügung zu </tspan><tspan x="7" y="89.79999999999998">stellen; eine</tspan><tspan x="7" y="104.19999999999999">          Fallvorstellung im TB muss e</tspan><tspan x="7" y="118.6">ine umfassende visuelle </tspan><tspan x="7" y="133">Darstellung aller relevanten</tspan><tspan x="7" y="147.4">          diagnostischen Ergebnisse e</tspan><tspan x="7" y="161.8">nthalten [LC SoS 1.2.3.A]; eine </tspan><tspan x="7" y="176.20000000000002">Vorprüfung geeigneter</tspan><tspan x="7" y="190.60000000000002">          Studienpatienten wird durc</tspan><tspan x="7" y="205.00000000000003">hgeführt [LC SoS 1.2.3.C]; </tspan><tspan x="7" y="219.40000000000003">Einladung der TB-Teilnehmenden</tspan></text></g><rect style="fill: none; stroke-opacity: 0; stroke: white; stroke-width: 15px;" class="djs-hit djs-hit-all" x="0" y="0" width="200" height="212"/><rect x="-5" y="-5" rx="4" width="210" height="222" style="fill: none;" class="djs-outline"/></g></g><g class="djs-group"><g class="djs-element djs-shape" data-element-id="TextAnnotation_042gz3u" transform="matrix(1, 0, 0, 1, 910, 80)" style="display: block;"><g class="djs-visual"><rect x="0" y="0" width="200" height="197" rx="0" ry="0" style="stroke-linecap: round; stroke-linejoin: round; stroke: none; stroke-width: 2px; fill: none;"/><path style="fill: none; stroke-linecap: round; stroke-linejoin: round; stroke: rgb(0, 0, 0); stroke-width: 2px;" d="m 0, 0 m 10,0 l -10,0 l 0,197 l 10,0"/><text style="font-family: Arial, sans-serif; font-size: 12px; font-weight: normal; fill: rgb(0, 0, 0);" lineHeight="1.2" class="djs-label"><tspan x="7" y="17.799999999999997">Demonstration des Bildmaterials </tspan><tspan x="7" y="32.199999999999996">[LC SoS</tspan><tspan x="7" y="46.599999999999994">          1.2.3.E]; Vorstellung, Disku</tspan><tspan x="7" y="60.99999999999999">ssion und Entscheidungsfindung: </tspan><tspan x="7" y="75.39999999999999">Erstellung eines</tspan><tspan x="7" y="89.79999999999998">          interdisziplinären Behandl</tspan><tspan x="7" y="104.19999999999999">ungsplans [LC SoS 1.2.3.F]; </tspan><tspan x="7" y="118.6">Dokumentation der Teilnahme [LC</tspan><tspan x="7" y="133">SoS</tspan><tspan x="7" y="147.4">          1.2.3.B]; falls erforderlich:</tspan><tspan x="7" y="161.8">noch fehlende Diagnostik ODER </tspan><tspan x="7" y="176.20000000000002">Wiedervorstellung; falls</tspan><tspan x="7" y="190.60000000000002">          geeignet: Studienempfehlung</tspan></text></g><rect style="fill: none; stroke-opacity: 0; stroke: white; stroke-width: 15px;" class="djs-hit djs-hit-all" x="0" y="0" width="200" height="197"/><rect x="-5" y="-5" rx="4" width="210" height="207" style="fill: none;" class="djs-outline"/></g></g><g class="djs-group"><g class="djs-element djs-shape" data-element-id="TextAnnotation_0qqtisd" transform="matrix(1, 0, 0, 1, 490, 73)" style="display: block;"><g class="djs-visual"><rect x="0" y="0" width="190" height="226" rx="0" ry="0" style="stroke-linecap: round; stroke-linejoin: round; stroke: none; stroke-width: 2px; fill: none;"/><path style="fill: none; stroke-linecap: round; stroke-linejoin: round; stroke: rgb(0, 0, 0); stroke-width: 2px;" d="m 0, 0 m 10,0 l -10,0 l 0,226 l 10,0"/><text style="font-family: Arial, sans-serif; font-size: 12px; font-weight: normal; fill: rgb(0, 0, 0);" lineHeight="1.2" class="djs-label"><tspan x="7" y="17.799999999999997">Administrative Daten: </tspan><tspan x="7" y="32.199999999999996">Patientendaten,</tspan><tspan x="7" y="46.599999999999994">          anmeldende Person, gewüns</tspan><tspan x="7" y="60.99999999999999">chte Teilnehmende;</tspan><tspan x="7" y="75.39999999999999">          medizinische Daten: Anam</tspan><tspan x="7" y="89.79999999999998">nese, Erkrankung, Staging, </tspan><tspan x="7" y="104.19999999999999">Typisierung, Grading, </tspan><tspan x="7" y="118.6">Ergebnisse aus</tspan><tspan x="7" y="133">          Bildgebung/Labor/Pathologie</tspan><tspan x="7" y="147.4">, durchgeführte Therapien;</tspan><tspan x="7" y="161.8">          patientenbezogenes Bildm</tspan><tspan x="7" y="176.20000000000002">aterial (z. B. Bildgebung, </tspan><tspan x="7" y="190.60000000000002">Pathologiebefunde und </tspan><tspan x="7" y="205.00000000000003">Laborergebnisse)</tspan><tspan x="7" y="219.40000000000003">          [LC SoS 1.2.3.A]</tspan></text></g><rect style="fill: none; stroke-opacity: 0; stroke: white; stroke-width: 15px;" class="djs-hit djs-hit-all" x="0" y="0" width="190" height="226"/><rect x="-5" y="-5" rx="4" width="200" height="236" style="fill: none;" class="djs-outline"/></g></g><g class="djs-group"><g class="djs-element djs-shape" data-element-id="TextAnnotation_0cqjbdt" transform="matrix(1, 0, 0, 1, 330, 450)" style="display: block;"><g class="djs-visual"><rect x="0" y="0" width="160" height="168" rx="0" ry="0" style="stroke-linecap: round; stroke-linejoin: round; stroke: none; stroke-width: 2px; fill: none;"/><path style="fill: none; stroke-linecap: round; stroke-linejoin: round; stroke: rgb(0, 0, 0); stroke-width: 2px;" d="m 0, 0 m 10,0 l -10,0 l 0,168 l 10,0"/><text style="font-family: Arial, sans-serif; font-size: 12px; font-weight: normal; fill: rgb(0, 0, 0);" lineHeight="1.2" class="djs-label"><tspan x="7" y="17.799999999999997">alle Patienten mit </tspan><tspan x="7" y="32.199999999999996">Erstmanifestation</tspan><tspan x="7" y="46.599999999999994">          (Primärfälle), neu</tspan><tspan x="7" y="60.99999999999999">em Rezidiv oder </tspan><tspan x="7" y="75.39999999999999">Fernmetastase werden vor</tspan><tspan x="7" y="89.79999999999998">der Behandlung im </tspan><tspan x="7" y="104.19999999999999">Tumorboard</tspan><tspan x="7" y="118.6">          vorgestellt (präther</tspan><tspan x="7" y="133">apeutische Tumorboard-</tspan><tspan x="7" y="147.4">Vorstellung) [LC SoS </tspan><tspan x="7" y="161.8">1.2.2.D]</tspan></text></g><rect style="fill: none; stroke-opacity: 0; stroke: white; stroke-width: 15px;" class="djs-hit djs-hit-all" x="0" y="0" width="160" height="168"/><rect x="-5" y="-5" rx="4" width="170" height="178" style="fill: none;" class="djs-outline"/></g></g><g class="djs-group"><g class="djs-element djs-connection" data-element-id="DataInputAssociation_1ju276v" style="display: block;"><g class="djs-visual"><defs><marker id="marker-apq7sjwhd2v7901joelt7w7y6" viewBox="0 0 20 20" refX="11" refY="10" markerWidth="10" markerHeight="10" orient="auto"><path d="M 1 5 L 11 10 L 1 15" style="fill: none; stroke-linecap: round; stroke-linejoin: round; stroke: rgb(34, 36, 42); stroke-width: 1.5px; stroke-dasharray: 10000px, 1px;"/></marker></defs><path style="fill: none; stroke-linecap: round; stroke-linejoin: round; stroke: rgb(34, 36, 42); stroke-width: 2px; marker-end: url('#marker-apq7sjwhd2v7901joelt7w7y6'); stroke-dasharray: 0px, 5px;" data-corner-radius="5" d="M430,275L430,310"/></g><path d="M430,275L430,310" style="fill: none; stroke-opacity: 0; stroke: white; stroke-width: 15px;" class="djs-hit djs-hit-stroke"/><rect x="425" y="270" rx="4" width="10" height="45" style="fill: none;" class="djs-outline"/></g></g><g class="djs-group"><g class="djs-element djs-connection" data-element-id="DataOutputAssociation_08pbgnd" style="display: block;"><g class="djs-visual"><defs><marker id="marker-5x67kwlzi137ekjo68o0hqjwq" viewBox="0 0 20 20" refX="11" refY="10" markerWidth="10" markerHeight="10" orient="auto"><path d="M 1 5 L 11 10 L 1 15" style="fill: none; stroke-linecap: round; stroke-linejoin: round; stroke: rgb(34, 36, 42); stroke-width: 1.5px; stroke-dasharray: 10000px, 1px;"/></marker></defs><path style="fill: none; stroke-linecap: round; stroke-linejoin: round; stroke: rgb(34, 36, 42); stroke-width: 2px; marker-end: url('#marker-5x67kwlzi137ekjo68o0hqjwq'); stroke-dasharray: 0px, 5px;" data-corner-radius="5" d="M890,390L890,425"/></g><path d="M890,390L890,425" style="fill: none; stroke-opacity: 0; stroke: white; stroke-width: 15px;" class="djs-hit djs-hit-stroke"/><rect x="885" y="385" rx="4" width="10" height="45" style="fill: none;" class="djs-outline"/></g></g><g class="djs-group"><g class="djs-element djs-connection" data-element-id="Association_08afk0j" style="display: block;"><g class="djs-visual"><path style="fill: none; stroke-linecap: round; stroke-linejoin: round; stroke: rgb(34, 36, 42); stroke-width: 2px; stroke-dasharray: 0px, 5px;" data-corner-radius="5" d="M653,390L654,430"/></g><path d="M653,390L654,430" style="fill: none; stroke-opacity: 0; stroke: white; stroke-width: 15px;" class="djs-hit djs-hit-stroke"/><rect x="648" y="385" rx="4" width="11" height="50" style="fill: none;" class="djs-outline"/></g></g><g class="djs-group"><g class="djs-element djs-connection" data-element-id="Association_1vzl3a6" style="display: block;"><g class="djs-visual"><path style="fill: none; stroke-linecap: round; stroke-linejoin: round; stroke: rgb(34, 36, 42); stroke-width: 2px; stroke-dasharray: 0px, 5px;" data-corner-radius="5" d="M660,310L685,259"/></g><path d="M660,310L685,259" style="fill: none; stroke-opacity: 0; stroke: white; stroke-width: 15px;" class="djs-hit djs-hit-stroke"/><rect x="655" y="254" rx="4" width="35" height="61" style="fill: none;" class="djs-outline"/></g></g><g class="djs-group"><g class="djs-element djs-connection" data-element-id="Association_0fk0lek" style="display: block;"><g class="djs-visual"><path style="fill: none; stroke-linecap: round; stroke-linejoin: round; stroke: rgb(34, 36, 42); stroke-width: 2px; stroke-dasharray: 0px, 5px;" data-corner-radius="5" d="M875,310L910,237"/></g><path d="M875,310L910,237" style="fill: none; stroke-opacity: 0; stroke: white; stroke-width: 15px;" class="djs-hit djs-hit-stroke"/><rect x="870" y="232" rx="4" width="45" height="83" style="fill: none;" class="djs-outline"/></g></g><g class="djs-group"><g class="djs-element djs-connection" data-element-id="Association_1kr0h9z" style="display: block;"><g class="djs-visual"><path style="fill: none; stroke-linecap: round; stroke-linejoin: round; stroke: rgb(34, 36, 42); stroke-width: 2px; stroke-dasharray: 0px, 5px;" data-corner-radius="5" d="M448,240L490,216"/></g><path d="M448,240L490,216" style="fill: none; stroke-opacity: 0; stroke: white; stroke-width: 15px;" class="djs-hit djs-hit-stroke"/><rect x="443" y="211" rx="4" width="52" height="34" style="fill: none;" class="djs-outline"/></g></g><g class="djs-group"><g class="djs-element djs-connection" data-element-id="Association_1vslqwx" style="display: block;"><g class="djs-visual"><path style="fill: none; stroke-linecap: round; stroke-linejoin: round; stroke: rgb(34, 36, 42); stroke-width: 2px; stroke-dasharray: 0px, 5px;" data-corner-radius="5" d="M349,365L402,450"/></g><path d="M349,365L402,450" style="fill: none; stroke-opacity: 0; stroke: white; stroke-width: 15px;" class="djs-hit djs-hit-stroke"/><rect x="344" y="360" rx="4" width="63" height="95" style="fill: none;" class="djs-outline"/></g></g></svg>